ISO-10303-21;
HEADER;
FILE_DESCRIPTION(('Open CASCADE Model'),'2;1');
FILE_NAME('Open CASCADE Shape Model','2026-09-20T10:33:50',('Author'),(
    'Open CASCADE'),'Open CASCADE STEP processor 7.8','Open CASCADE 7.8'
  ,'Unknown');
FILE_SCHEMA(('AUTOMOTIVE_DESIGN { 1 0 10303 214 1 1 1 1 }'));
ENDSEC;
DATA;
#1 = APPLICATION_PROTOCOL_DEFINITION('international standard',
  'automotive_design',2000,#2);
#2 = APPLICATION_CONTEXT(
  'core data for automotive mechanical design processes');
#3 = SHAPE_DEFINITION_REPRESENTATION(#4,#10);
#4 = PRODUCT_DEFINITION_SHAPE('','',#5);
#5 = PRODUCT_DEFINITION('design','',#6,#9);
#6 = PRODUCT_DEFINITION_FORMATION('','',#7);
#7 = PRODUCT('Open CASCADE STEP translator 7.8 2',
  'Open CASCADE STEP translator 7.8 2','',(#8));
#8 = PRODUCT_CONTEXT('',#2,'mechanical');
#9 = PRODUCT_DEFINITION_CONTEXT('part definition',#2,'design');
#10 = ADVANCED_BREP_SHAPE_REPRESENTATION('',(#11,#15),#1463);
#11 = AXIS2_PLACEMENT_3D('',#12,#13,#14);
#12 = CARTESIAN_POINT('',(0.,0.,0.));
#13 = DIRECTION('',(0.,0.,1.));
#14 = DIRECTION('',(1.,0.,-0.));
#15 = MANIFOLD_SOLID_BREP('',#16);
#16 = CLOSED_SHELL('',(#17,#105,#140,#385,#969,#1028,#1082,#1136,#1186,
    #1240,#1294,#1348,#1383,#1388,#1436));
#17 = ADVANCED_FACE('',(#18),#32,.T.);
#18 = FACE_BOUND('',#19,.F.);
#19 = EDGE_LOOP('',(#20,#50,#77,#78));
#20 = ORIENTED_EDGE('',*,*,#21,.T.);
#21 = EDGE_CURVE('',#22,#24,#26,.T.);
#22 = VERTEX_POINT('',#23);
#23 = CARTESIAN_POINT('',(19.,0.,6.5));
#24 = VERTEX_POINT('',#25);
#25 = CARTESIAN_POINT('',(19.,0.,8.));
#26 = SEAM_CURVE('',#27,(#31,#43),.PCURVE_S1.);
#27 = LINE('',#28,#29);
#28 = CARTESIAN_POINT('',(19.,0.,6.5));
#29 = VECTOR('',#30,1.);
#30 = DIRECTION('',(0.,0.,1.));
#31 = PCURVE('',#32,#37);
#32 = CYLINDRICAL_SURFACE('',#33,19.);
#33 = AXIS2_PLACEMENT_3D('',#34,#35,#36);
#34 = CARTESIAN_POINT('',(0.,0.,6.5));
#35 = DIRECTION('',(-0.,-0.,-1.));
#36 = DIRECTION('',(1.,0.,0.));
#37 = DEFINITIONAL_REPRESENTATION('',(#38),#42);
#38 = LINE('',#39,#40);
#39 = CARTESIAN_POINT('',(-0.,0.));
#40 = VECTOR('',#41,1.);
#41 = DIRECTION('',(-0.,-1.));
#42 = ( GEOMETRIC_REPRESENTATION_CONTEXT(2) 
PARAMETRIC_REPRESENTATION_CONTEXT() REPRESENTATION_CONTEXT('2D SPACE',''
  ) );
#43 = PCURVE('',#32,#44);
#44 = DEFINITIONAL_REPRESENTATION('',(#45),#49);
#45 = LINE('',#46,#47);
#46 = CARTESIAN_POINT('',(-6.28318530718,0.));
#47 = VECTOR('',#48,1.);
#48 = DIRECTION('',(-0.,-1.));
#49 = ( GEOMETRIC_REPRESENTATION_CONTEXT(2) 
PARAMETRIC_REPRESENTATION_CONTEXT() REPRESENTATION_CONTEXT('2D SPACE',''
  ) );
#50 = ORIENTED_EDGE('',*,*,#51,.T.);
#51 = EDGE_CURVE('',#24,#24,#52,.T.);
#52 = SURFACE_CURVE('',#53,(#58,#65),.PCURVE_S1.);
#53 = CIRCLE('',#54,19.);
#54 = AXIS2_PLACEMENT_3D('',#55,#56,#57);
#55 = CARTESIAN_POINT('',(0.,0.,8.));
#56 = DIRECTION('',(0.,0.,1.));
#57 = DIRECTION('',(1.,0.,0.));
#58 = PCURVE('',#32,#59);
#59 = DEFINITIONAL_REPRESENTATION('',(#60),#64);
#60 = LINE('',#61,#62);
#61 = CARTESIAN_POINT('',(-0.,-1.5));
#62 = VECTOR('',#63,1.);
#63 = DIRECTION('',(-1.,0.));
#64 = ( GEOMETRIC_REPRESENTATION_CONTEXT(2) 
PARAMETRIC_REPRESENTATION_CONTEXT() REPRESENTATION_CONTEXT('2D SPACE',''
  ) );
#65 = PCURVE('',#66,#71);
#66 = PLANE('',#67);
#67 = AXIS2_PLACEMENT_3D('',#68,#69,#70);
#68 = CARTESIAN_POINT('',(-1.727292798997E-15,3.759188932048E-16,8.));
#69 = DIRECTION('',(0.,0.,1.));
#70 = DIRECTION('',(1.,0.,-0.));
#71 = DEFINITIONAL_REPRESENTATION('',(#72),#76);
#72 = CIRCLE('',#73,19.);
#73 = AXIS2_PLACEMENT_2D('',#74,#75);
#74 = CARTESIAN_POINT('',(1.727292798997E-15,-3.759188932048E-16));
#75 = DIRECTION('',(1.,0.));
#76 = ( GEOMETRIC_REPRESENTATION_CONTEXT(2) 
PARAMETRIC_REPRESENTATION_CONTEXT() REPRESENTATION_CONTEXT('2D SPACE',''
  ) );
#77 = ORIENTED_EDGE('',*,*,#21,.F.);
#78 = ORIENTED_EDGE('',*,*,#79,.F.);
#79 = EDGE_CURVE('',#22,#22,#80,.T.);
#80 = SURFACE_CURVE('',#81,(#86,#93),.PCURVE_S1.);
#81 = CIRCLE('',#82,19.);
#82 = AXIS2_PLACEMENT_3D('',#83,#84,#85);
#83 = CARTESIAN_POINT('',(0.,0.,6.5));
#84 = DIRECTION('',(0.,0.,1.));
#85 = DIRECTION('',(1.,0.,0.));
#86 = PCURVE('',#32,#87);
#87 = DEFINITIONAL_REPRESENTATION('',(#88),#92);
#88 = LINE('',#89,#90);
#89 = CARTESIAN_POINT('',(-0.,0.));
#90 = VECTOR('',#91,1.);
#91 = DIRECTION('',(-1.,0.));
#92 = ( GEOMETRIC_REPRESENTATION_CONTEXT(2) 
PARAMETRIC_REPRESENTATION_CONTEXT() REPRESENTATION_CONTEXT('2D SPACE',''
  ) );
#93 = PCURVE('',#94,#99);
#94 = PLANE('',#95);
#95 = AXIS2_PLACEMENT_3D('',#96,#97,#98);
#96 = CARTESIAN_POINT('',(-1.727292798997E-15,3.759188932048E-16,6.5));
#97 = DIRECTION('',(0.,0.,1.));
#98 = DIRECTION('',(1.,0.,-0.));
#99 = DEFINITIONAL_REPRESENTATION('',(#100),#104);
#100 = CIRCLE('',#101,19.);
#101 = AXIS2_PLACEMENT_2D('',#102,#103);
#102 = CARTESIAN_POINT('',(1.727292798997E-15,-3.759188932048E-16));
#103 = DIRECTION('',(1.,0.));
#104 = ( GEOMETRIC_REPRESENTATION_CONTEXT(2) 
PARAMETRIC_REPRESENTATION_CONTEXT() REPRESENTATION_CONTEXT('2D SPACE',''
  ) );
#105 = ADVANCED_FACE('',(#106,#109),#94,.F.);
#106 = FACE_BOUND('',#107,.F.);
#107 = EDGE_LOOP('',(#108));
#108 = ORIENTED_EDGE('',*,*,#79,.T.);
#109 = FACE_BOUND('',#110,.F.);
#110 = EDGE_LOOP('',(#111));
#111 = ORIENTED_EDGE('',*,*,#112,.F.);
#112 = EDGE_CURVE('',#113,#113,#115,.T.);
#113 = VERTEX_POINT('',#114);
#114 = CARTESIAN_POINT('',(16.5,0.,6.5));
#115 = SURFACE_CURVE('',#116,(#121,#128),.PCURVE_S1.);
#116 = CIRCLE('',#117,16.5);
#117 = AXIS2_PLACEMENT_3D('',#118,#119,#120);
#118 = CARTESIAN_POINT('',(0.,0.,6.5));
#119 = DIRECTION('',(0.,0.,1.));
#120 = DIRECTION('',(1.,0.,0.));
#121 = PCURVE('',#94,#122);
#122 = DEFINITIONAL_REPRESENTATION('',(#123),#127);
#123 = CIRCLE('',#124,16.5);
#124 = AXIS2_PLACEMENT_2D('',#125,#126);
#125 = CARTESIAN_POINT('',(1.727292798997E-15,-3.759188932048E-16));
#126 = DIRECTION('',(1.,0.));
#127 = ( GEOMETRIC_REPRESENTATION_CONTEXT(2) 
PARAMETRIC_REPRESENTATION_CONTEXT() REPRESENTATION_CONTEXT('2D SPACE',''
  ) );
#128 = PCURVE('',#129,#134);
#129 = CYLINDRICAL_SURFACE('',#130,16.5);
#130 = AXIS2_PLACEMENT_3D('',#131,#132,#133);
#131 = CARTESIAN_POINT('',(0.,0.,1.5));
#132 = DIRECTION('',(-0.,-0.,-1.));
#133 = DIRECTION('',(1.,0.,0.));
#134 = DEFINITIONAL_REPRESENTATION('',(#135),#139);
#135 = LINE('',#136,#137);
#136 = CARTESIAN_POINT('',(-0.,-5.));
#137 = VECTOR('',#138,1.);
#138 = DIRECTION('',(-1.,0.));
#139 = ( GEOMETRIC_REPRESENTATION_CONTEXT(2) 
PARAMETRIC_REPRESENTATION_CONTEXT() REPRESENTATION_CONTEXT('2D SPACE',''
  ) );
#140 = ADVANCED_FACE('',(#141,#144,#179,#214,#249,#280,#315,#350),#66,
  .T.);
#141 = FACE_BOUND('',#142,.T.);
#142 = EDGE_LOOP('',(#143));
#143 = ORIENTED_EDGE('',*,*,#51,.T.);
#144 = FACE_BOUND('',#145,.T.);
#145 = EDGE_LOOP('',(#146));
#146 = ORIENTED_EDGE('',*,*,#147,.T.);
#147 = EDGE_CURVE('',#148,#148,#150,.T.);
#148 = VERTEX_POINT('',#149);
#149 = CARTESIAN_POINT('',(-4.85,-8.400446416709,8.));
#150 = SURFACE_CURVE('',#151,(#156,#167),.PCURVE_S1.);
#151 = CIRCLE('',#152,1.7);
#152 = AXIS2_PLACEMENT_3D('',#153,#154,#155);
#153 = CARTESIAN_POINT('',(-4.,-6.928203230276,8.));
#154 = DIRECTION('',(-0.,0.,-1.));
#155 = DIRECTION('',(-0.5,-0.866025403784,0.));
#156 = PCURVE('',#66,#157);
#157 = DEFINITIONAL_REPRESENTATION('',(#158),#166);
#158 = ( BOUNDED_CURVE() B_SPLINE_CURVE(2,(#159,#160,#161,#162,#163,#164
,#165),.UNSPECIFIED.,.T.,.F.) B_SPLINE_CURVE_WITH_KNOTS((1,2,2,2,2,1),(
    -2.094395102393,0.,2.094395102393,4.188790204786,6.28318530718,
8.377580409573),.UNSPECIFIED.) CURVE() GEOMETRIC_REPRESENTATION_ITEM() 
RATIONAL_B_SPLINE_CURVE((1.,0.5,1.,0.5,1.,0.5,1.)) REPRESENTATION_ITEM(
  '') );
#159 = CARTESIAN_POINT('',(-4.85,-8.400446416709));
#160 = CARTESIAN_POINT('',(-7.4,-6.928203230276));
#161 = CARTESIAN_POINT('',(-4.85,-5.455960043842));
#162 = CARTESIAN_POINT('',(-2.3,-3.983716857408));
#163 = CARTESIAN_POINT('',(-2.3,-6.928203230276));
#164 = CARTESIAN_POINT('',(-2.3,-9.872689603143));
#165 = CARTESIAN_POINT('',(-4.85,-8.400446416709));
#166 = ( GEOMETRIC_REPRESENTATION_CONTEXT(2) 
PARAMETRIC_REPRESENTATION_CONTEXT() REPRESENTATION_CONTEXT('2D SPACE',''
  ) );
#167 = PCURVE('',#168,#173);
#168 = CYLINDRICAL_SURFACE('',#169,1.7);
#169 = AXIS2_PLACEMENT_3D('',#170,#171,#172);
#170 = CARTESIAN_POINT('',(-4.,-6.928203230276,-30.0000002));
#171 = DIRECTION('',(-0.,-0.,-1.));
#172 = DIRECTION('',(-0.5,-0.866025403784,0.));
#173 = DEFINITIONAL_REPRESENTATION('',(#174),#178);
#174 = LINE('',#175,#176);
#175 = CARTESIAN_POINT('',(-6.28318530718,-38.0000002));
#176 = VECTOR('',#177,1.);
#177 = DIRECTION('',(1.,-0.));
#178 = ( GEOMETRIC_REPRESENTATION_CONTEXT(2) 
PARAMETRIC_REPRESENTATION_CONTEXT() REPRESENTATION_CONTEXT('2D SPACE',''
  ) );
#179 = FACE_BOUND('',#180,.T.);
#180 = EDGE_LOOP('',(#181));
#181 = ORIENTED_EDGE('',*,*,#182,.T.);
#182 = EDGE_CURVE('',#183,#183,#185,.T.);
#183 = VERTEX_POINT('',#184);
#184 = CARTESIAN_POINT('',(-9.7,1.187907395173E-15,8.));
#185 = SURFACE_CURVE('',#186,(#191,#202),.PCURVE_S1.);
#186 = CIRCLE('',#187,1.7);
#187 = AXIS2_PLACEMENT_3D('',#188,#189,#190);
#188 = CARTESIAN_POINT('',(-8.,9.797174393179E-16,8.));
#189 = DIRECTION('',(-0.,0.,-1.));
#190 = DIRECTION('',(-1.,1.224646799147E-16,0.));
#191 = PCURVE('',#66,#192);
#192 = DEFINITIONAL_REPRESENTATION('',(#193),#201);
#193 = ( BOUNDED_CURVE() B_SPLINE_CURVE(2,(#194,#195,#196,#197,#198,#199
,#200),.UNSPECIFIED.,.T.,.F.) B_SPLINE_CURVE_WITH_KNOTS((1,2,2,2,2,1),(
    -2.094395102393,0.,2.094395102393,4.188790204786,6.28318530718,
8.377580409573),.UNSPECIFIED.) CURVE() GEOMETRIC_REPRESENTATION_ITEM() 
RATIONAL_B_SPLINE_CURVE((1.,0.5,1.,0.5,1.,0.5,1.)) REPRESENTATION_ITEM(
  '') );
#194 = CARTESIAN_POINT('',(-9.7,8.119885019681E-16));
#195 = CARTESIAN_POINT('',(-9.7,2.944486372867));
#196 = CARTESIAN_POINT('',(-7.15,1.472243186434));
#197 = CARTESIAN_POINT('',(-4.6,6.037985461131E-16));
#198 = CARTESIAN_POINT('',(-7.15,-1.472243186434));
#199 = CARTESIAN_POINT('',(-9.7,-2.944486372867));
#200 = CARTESIAN_POINT('',(-9.7,8.119885019681E-16));
#201 = ( GEOMETRIC_REPRESENTATION_CONTEXT(2) 
PARAMETRIC_REPRESENTATION_CONTEXT() REPRESENTATION_CONTEXT('2D SPACE',''
  ) );
#202 = PCURVE('',#203,#208);
#203 = CYLINDRICAL_SURFACE('',#204,1.7);
#204 = AXIS2_PLACEMENT_3D('',#205,#206,#207);
#205 = CARTESIAN_POINT('',(-8.,9.797174393179E-16,-30.0000002));
#206 = DIRECTION('',(-0.,-0.,-1.));
#207 = DIRECTION('',(-1.,1.224646799147E-16,0.));
#208 = DEFINITIONAL_REPRESENTATION('',(#209),#213);
#209 = LINE('',#210,#211);
#210 = CARTESIAN_POINT('',(-6.28318530718,-38.0000002));
#211 = VECTOR('',#212,1.);
#212 = DIRECTION('',(1.,-0.));
#213 = ( GEOMETRIC_REPRESENTATION_CONTEXT(2) 
PARAMETRIC_REPRESENTATION_CONTEXT() REPRESENTATION_CONTEXT('2D SPACE',''
  ) );
#214 = FACE_BOUND('',#215,.T.);
#215 = EDGE_LOOP('',(#216));
#216 = ORIENTED_EDGE('',*,*,#217,.T.);
#217 = EDGE_CURVE('',#218,#218,#220,.T.);
#218 = VERTEX_POINT('',#219);
#219 = CARTESIAN_POINT('',(4.85,-8.400446416709,8.));
#220 = SURFACE_CURVE('',#221,(#226,#237),.PCURVE_S1.);
#221 = CIRCLE('',#222,1.7);
#222 = AXIS2_PLACEMENT_3D('',#223,#224,#225);
#223 = CARTESIAN_POINT('',(4.,-6.928203230276,8.));
#224 = DIRECTION('',(0.,0.,-1.));
#225 = DIRECTION('',(0.5,-0.866025403784,0.));
#226 = PCURVE('',#66,#227);
#227 = DEFINITIONAL_REPRESENTATION('',(#228),#236);
#228 = ( BOUNDED_CURVE() B_SPLINE_CURVE(2,(#229,#230,#231,#232,#233,#234
,#235),.UNSPECIFIED.,.T.,.F.) B_SPLINE_CURVE_WITH_KNOTS((1,2,2,2,2,1),(
    -2.094395102393,0.,2.094395102393,4.188790204786,6.28318530718,
8.377580409573),.UNSPECIFIED.) CURVE() GEOMETRIC_REPRESENTATION_ITEM() 
RATIONAL_B_SPLINE_CURVE((1.,0.5,1.,0.5,1.,0.5,1.)) REPRESENTATION_ITEM(
  '') );
#229 = CARTESIAN_POINT('',(4.85,-8.400446416709));
#230 = CARTESIAN_POINT('',(2.3,-9.872689603143));
#231 = CARTESIAN_POINT('',(2.3,-6.928203230276));
#232 = CARTESIAN_POINT('',(2.3,-3.983716857408));
#233 = CARTESIAN_POINT('',(4.85,-5.455960043842));
#234 = CARTESIAN_POINT('',(7.4,-6.928203230276));
#235 = CARTESIAN_POINT('',(4.85,-8.400446416709));
#236 = ( GEOMETRIC_REPRESENTATION_CONTEXT(2) 
PARAMETRIC_REPRESENTATION_CONTEXT() REPRESENTATION_CONTEXT('2D SPACE',''
  ) );
#237 = PCURVE('',#238,#243);
#238 = CYLINDRICAL_SURFACE('',#239,1.7);
#239 = AXIS2_PLACEMENT_3D('',#240,#241,#242);
#240 = CARTESIAN_POINT('',(4.,-6.928203230276,-30.0000002));
#241 = DIRECTION('',(0.,0.,-1.));
#242 = DIRECTION('',(0.5,-0.866025403784,0.));
#243 = DEFINITIONAL_REPRESENTATION('',(#244),#248);
#244 = LINE('',#245,#246);
#245 = CARTESIAN_POINT('',(-6.28318530718,-38.0000002));
#246 = VECTOR('',#247,1.);
#247 = DIRECTION('',(1.,-0.));
#248 = ( GEOMETRIC_REPRESENTATION_CONTEXT(2) 
PARAMETRIC_REPRESENTATION_CONTEXT() REPRESENTATION_CONTEXT('2D SPACE',''
  ) );
#249 = FACE_BOUND('',#250,.T.);
#250 = EDGE_LOOP('',(#251));
#251 = ORIENTED_EDGE('',*,*,#252,.F.);
#252 = EDGE_CURVE('',#253,#253,#255,.T.);
#253 = VERTEX_POINT('',#254);
#254 = CARTESIAN_POINT('',(4.5,0.,8.));
#255 = SURFACE_CURVE('',#256,(#261,#268),.PCURVE_S1.);
#256 = CIRCLE('',#257,4.5);
#257 = AXIS2_PLACEMENT_3D('',#258,#259,#260);
#258 = CARTESIAN_POINT('',(0.,0.,8.));
#259 = DIRECTION('',(0.,0.,1.));
#260 = DIRECTION('',(1.,0.,0.));
#261 = PCURVE('',#66,#262);
#262 = DEFINITIONAL_REPRESENTATION('',(#263),#267);
#263 = CIRCLE('',#264,4.5);
#264 = AXIS2_PLACEMENT_2D('',#265,#266);
#265 = CARTESIAN_POINT('',(1.727292798997E-15,-3.759188932048E-16));
#266 = DIRECTION('',(1.,0.));
#267 = ( GEOMETRIC_REPRESENTATION_CONTEXT(2) 
PARAMETRIC_REPRESENTATION_CONTEXT() REPRESENTATION_CONTEXT('2D SPACE',''
  ) );
#268 = PCURVE('',#269,#274);
#269 = CYLINDRICAL_SURFACE('',#270,4.5);
#270 = AXIS2_PLACEMENT_3D('',#271,#272,#273);
#271 = CARTESIAN_POINT('',(0.,0.,0.));
#272 = DIRECTION('',(-0.,-0.,-1.));
#273 = DIRECTION('',(1.,0.,0.));
#274 = DEFINITIONAL_REPRESENTATION('',(#275),#279);
#275 = LINE('',#276,#277);
#276 = CARTESIAN_POINT('',(-0.,-8.));
#277 = VECTOR('',#278,1.);
#278 = DIRECTION('',(-1.,0.));
#279 = ( GEOMETRIC_REPRESENTATION_CONTEXT(2) 
PARAMETRIC_REPRESENTATION_CONTEXT() REPRESENTATION_CONTEXT('2D SPACE',''
  ) );
#280 = FACE_BOUND('',#281,.T.);
#281 = EDGE_LOOP('',(#282));
#282 = ORIENTED_EDGE('',*,*,#283,.T.);
#283 = EDGE_CURVE('',#284,#284,#286,.T.);
#284 = VERTEX_POINT('',#285);
#285 = CARTESIAN_POINT('',(9.7,0.,8.));
#286 = SURFACE_CURVE('',#287,(#292,#303),.PCURVE_S1.);
#287 = CIRCLE('',#288,1.7);
#288 = AXIS2_PLACEMENT_3D('',#289,#290,#291);
#289 = CARTESIAN_POINT('',(8.,0.,8.));
#290 = DIRECTION('',(0.,0.,-1.));
#291 = DIRECTION('',(1.,0.,0.));
#292 = PCURVE('',#66,#293);
#293 = DEFINITIONAL_REPRESENTATION('',(#294),#302);
#294 = ( BOUNDED_CURVE() B_SPLINE_CURVE(2,(#295,#296,#297,#298,#299,#300
,#301),.UNSPECIFIED.,.T.,.F.) B_SPLINE_CURVE_WITH_KNOTS((1,2,2,2,2,1),(
    -2.094395102393,0.,2.094395102393,4.188790204786,6.28318530718,
8.377580409573),.UNSPECIFIED.) CURVE() GEOMETRIC_REPRESENTATION_ITEM() 
RATIONAL_B_SPLINE_CURVE((1.,0.5,1.,0.5,1.,0.5,1.)) REPRESENTATION_ITEM(
  '') );
#295 = CARTESIAN_POINT('',(9.7,-3.759188932048E-16));
#296 = CARTESIAN_POINT('',(9.7,-2.944486372867));
#297 = CARTESIAN_POINT('',(7.15,-1.472243186434));
#298 = CARTESIAN_POINT('',(4.6,-7.922988049149E-16));
#299 = CARTESIAN_POINT('',(7.15,1.472243186434));
#300 = CARTESIAN_POINT('',(9.7,2.944486372867));
#301 = CARTESIAN_POINT('',(9.7,-3.759188932048E-16));
#302 = ( GEOMETRIC_REPRESENTATION_CONTEXT(2) 
PARAMETRIC_REPRESENTATION_CONTEXT() REPRESENTATION_CONTEXT('2D SPACE',''
  ) );
#303 = PCURVE('',#304,#309);
#304 = CYLINDRICAL_SURFACE('',#305,1.7);
#305 = AXIS2_PLACEMENT_3D('',#306,#307,#308);
#306 = CARTESIAN_POINT('',(8.,0.,-30.0000002));
#307 = DIRECTION('',(-0.,-0.,-1.));
#308 = DIRECTION('',(1.,0.,0.));
#309 = DEFINITIONAL_REPRESENTATION('',(#310),#314);
#310 = LINE('',#311,#312);
#311 = CARTESIAN_POINT('',(-6.28318530718,-38.0000002));
#312 = VECTOR('',#313,1.);
#313 = DIRECTION('',(1.,-0.));
#314 = ( GEOMETRIC_REPRESENTATION_CONTEXT(2) 
PARAMETRIC_REPRESENTATION_CONTEXT() REPRESENTATION_CONTEXT('2D SPACE',''
  ) );
#315 = FACE_BOUND('',#316,.T.);
#316 = EDGE_LOOP('',(#317));
#317 = ORIENTED_EDGE('',*,*,#318,.T.);
#318 = EDGE_CURVE('',#319,#319,#321,.T.);
#319 = VERTEX_POINT('',#320);
#320 = CARTESIAN_POINT('',(-4.85,8.400446416709,8.));
#321 = SURFACE_CURVE('',#322,(#327,#338),.PCURVE_S1.);
#322 = CIRCLE('',#323,1.7);
#323 = AXIS2_PLACEMENT_3D('',#324,#325,#326);
#324 = CARTESIAN_POINT('',(-4.,6.928203230276,8.));
#325 = DIRECTION('',(-0.,0.,-1.));
#326 = DIRECTION('',(-0.5,0.866025403784,0.));
#327 = PCURVE('',#66,#328);
#328 = DEFINITIONAL_REPRESENTATION('',(#329),#337);
#329 = ( BOUNDED_CURVE() B_SPLINE_CURVE(2,(#330,#331,#332,#333,#334,#335
,#336),.UNSPECIFIED.,.T.,.F.) B_SPLINE_CURVE_WITH_KNOTS((1,2,2,2,2,1),(
    -2.094395102393,0.,2.094395102393,4.188790204786,6.28318530718,
8.377580409573),.UNSPECIFIED.) CURVE() GEOMETRIC_REPRESENTATION_ITEM() 
RATIONAL_B_SPLINE_CURVE((1.,0.5,1.,0.5,1.,0.5,1.)) REPRESENTATION_ITEM(
  '') );
#330 = CARTESIAN_POINT('',(-4.85,8.400446416709));
#331 = CARTESIAN_POINT('',(-2.3,9.872689603143));
#332 = CARTESIAN_POINT('',(-2.3,6.928203230276));
#333 = CARTESIAN_POINT('',(-2.3,3.983716857408));
#334 = CARTESIAN_POINT('',(-4.85,5.455960043842));
#335 = CARTESIAN_POINT('',(-7.4,6.928203230276));
#336 = CARTESIAN_POINT('',(-4.85,8.400446416709));
#337 = ( GEOMETRIC_REPRESENTATION_CONTEXT(2) 
PARAMETRIC_REPRESENTATION_CONTEXT() REPRESENTATION_CONTEXT('2D SPACE',''
  ) );
#338 = PCURVE('',#339,#344);
#339 = CYLINDRICAL_SURFACE('',#340,1.7);
#340 = AXIS2_PLACEMENT_3D('',#341,#342,#343);
#341 = CARTESIAN_POINT('',(-4.,6.928203230276,-30.0000002));
#342 = DIRECTION('',(-0.,-0.,-1.));
#343 = DIRECTION('',(-0.5,0.866025403784,0.));
#344 = DEFINITIONAL_REPRESENTATION('',(#345),#349);
#345 = LINE('',#346,#347);
#346 = CARTESIAN_POINT('',(-6.28318530718,-38.0000002));
#347 = VECTOR('',#348,1.);
#348 = DIRECTION('',(1.,-0.));
#349 = ( GEOMETRIC_REPRESENTATION_CONTEXT(2) 
PARAMETRIC_REPRESENTATION_CONTEXT() REPRESENTATION_CONTEXT('2D SPACE',''
  ) );
#350 = FACE_BOUND('',#351,.T.);
#351 = EDGE_LOOP('',(#352));
#352 = ORIENTED_EDGE('',*,*,#353,.T.);
#353 = EDGE_CURVE('',#354,#354,#356,.T.);
#354 = VERTEX_POINT('',#355);
#355 = CARTESIAN_POINT('',(4.85,8.400446416709,8.));
#356 = SURFACE_CURVE('',#357,(#362,#373),.PCURVE_S1.);
#357 = CIRCLE('',#358,1.7);
#358 = AXIS2_PLACEMENT_3D('',#359,#360,#361);
#359 = CARTESIAN_POINT('',(4.,6.928203230276,8.));
#360 = DIRECTION('',(0.,0.,-1.));
#361 = DIRECTION('',(0.5,0.866025403784,0.));
#362 = PCURVE('',#66,#363);
#363 = DEFINITIONAL_REPRESENTATION('',(#364),#372);
#364 = ( BOUNDED_CURVE() B_SPLINE_CURVE(2,(#365,#366,#367,#368,#369,#370
,#371),.UNSPECIFIED.,.T.,.F.) B_SPLINE_CURVE_WITH_KNOTS((1,2,2,2,2,1),(
    -2.094395102393,0.,2.094395102393,4.188790204786,6.28318530718,
8.377580409573),.UNSPECIFIED.) CURVE() GEOMETRIC_REPRESENTATION_ITEM() 
RATIONAL_B_SPLINE_CURVE((1.,0.5,1.,0.5,1.,0.5,1.)) REPRESENTATION_ITEM(
  '') );
#365 = CARTESIAN_POINT('',(4.85,8.400446416709));
#366 = CARTESIAN_POINT('',(7.4,6.928203230276));
#367 = CARTESIAN_POINT('',(4.85,5.455960043842));
#368 = CARTESIAN_POINT('',(2.3,3.983716857408));
#369 = CARTESIAN_POINT('',(2.3,6.928203230276));
#370 = CARTESIAN_POINT('',(2.3,9.872689603143));
#371 = CARTESIAN_POINT('',(4.85,8.400446416709));
#372 = ( GEOMETRIC_REPRESENTATION_CONTEXT(2) 
PARAMETRIC_REPRESENTATION_CONTEXT() REPRESENTATION_CONTEXT('2D SPACE',''
  ) );
#373 = PCURVE('',#374,#379);
#374 = CYLINDRICAL_SURFACE('',#375,1.7);
#375 = AXIS2_PLACEMENT_3D('',#376,#377,#378);
#376 = CARTESIAN_POINT('',(4.,6.928203230276,-30.0000002));
#377 = DIRECTION('',(0.,0.,-1.));
#378 = DIRECTION('',(0.5,0.866025403784,0.));
#379 = DEFINITIONAL_REPRESENTATION('',(#380),#384);
#380 = LINE('',#381,#382);
#381 = CARTESIAN_POINT('',(-6.28318530718,-38.0000002));
#382 = VECTOR('',#383,1.);
#383 = DIRECTION('',(1.,-0.));
#384 = ( GEOMETRIC_REPRESENTATION_CONTEXT(2) 
PARAMETRIC_REPRESENTATION_CONTEXT() REPRESENTATION_CONTEXT('2D SPACE',''
  ) );
#385 = ADVANCED_FACE('',(#386),#129,.T.);
#386 = FACE_BOUND('',#387,.F.);
#387 = EDGE_LOOP('',(#388,#417,#440,#696,#717,#718,#719,#968));
#388 = ORIENTED_EDGE('',*,*,#389,.F.);
#389 = EDGE_CURVE('',#390,#390,#392,.T.);
#390 = VERTEX_POINT('',#391);
#391 = CARTESIAN_POINT('',(16.5,0.,1.5));
#392 = SURFACE_CURVE('',#393,(#398,#405),.PCURVE_S1.);
#393 = CIRCLE('',#394,16.5);
#394 = AXIS2_PLACEMENT_3D('',#395,#396,#397);
#395 = CARTESIAN_POINT('',(0.,0.,1.5));
#396 = DIRECTION('',(0.,0.,1.));
#397 = DIRECTION('',(1.,0.,0.));
#398 = PCURVE('',#129,#399);
#399 = DEFINITIONAL_REPRESENTATION('',(#400),#404);
#400 = LINE('',#401,#402);
#401 = CARTESIAN_POINT('',(-0.,0.));
#402 = VECTOR('',#403,1.);
#403 = DIRECTION('',(-1.,0.));
#404 = ( GEOMETRIC_REPRESENTATION_CONTEXT(2) 
PARAMETRIC_REPRESENTATION_CONTEXT() REPRESENTATION_CONTEXT('2D SPACE',''
  ) );
#405 = PCURVE('',#406,#411);
#406 = PLANE('',#407);
#407 = AXIS2_PLACEMENT_3D('',#408,#409,#410);
#408 = CARTESIAN_POINT('',(-1.727292798997E-15,3.759188932048E-16,1.5));
#409 = DIRECTION('',(0.,0.,1.));
#410 = DIRECTION('',(1.,0.,-0.));
#411 = DEFINITIONAL_REPRESENTATION('',(#412),#416);
#412 = CIRCLE('',#413,16.5);
#413 = AXIS2_PLACEMENT_2D('',#414,#415);
#414 = CARTESIAN_POINT('',(1.727292798997E-15,-3.759188932048E-16));
#415 = DIRECTION('',(1.,0.));
#416 = ( GEOMETRIC_REPRESENTATION_CONTEXT(2) 
PARAMETRIC_REPRESENTATION_CONTEXT() REPRESENTATION_CONTEXT('2D SPACE',''
  ) );
#417 = ORIENTED_EDGE('',*,*,#418,.T.);
#418 = EDGE_CURVE('',#390,#419,#421,.T.);
#419 = VERTEX_POINT('',#420);
#420 = CARTESIAN_POINT('',(16.5,0.,3.133974596216));
#421 = SEAM_CURVE('',#422,(#426,#433),.PCURVE_S1.);
#422 = LINE('',#423,#424);
#423 = CARTESIAN_POINT('',(16.5,0.,1.5));
#424 = VECTOR('',#425,1.);
#425 = DIRECTION('',(0.,0.,1.));
#426 = PCURVE('',#129,#427);
#427 = DEFINITIONAL_REPRESENTATION('',(#428),#432);
#428 = LINE('',#429,#430);
#429 = CARTESIAN_POINT('',(-6.28318530718,0.));
#430 = VECTOR('',#431,1.);
#431 = DIRECTION('',(-0.,-1.));
#432 = ( GEOMETRIC_REPRESENTATION_CONTEXT(2) 
PARAMETRIC_REPRESENTATION_CONTEXT() REPRESENTATION_CONTEXT('2D SPACE',''
  ) );
#433 = PCURVE('',#129,#434);
#434 = DEFINITIONAL_REPRESENTATION('',(#435),#439);
#435 = LINE('',#436,#437);
#436 = CARTESIAN_POINT('',(-0.,0.));
#437 = VECTOR('',#438,1.);
#438 = DIRECTION('',(-0.,-1.));
#439 = ( GEOMETRIC_REPRESENTATION_CONTEXT(2) 
PARAMETRIC_REPRESENTATION_CONTEXT() REPRESENTATION_CONTEXT('2D SPACE',''
  ) );
#440 = ORIENTED_EDGE('',*,*,#441,.F.);
#441 = EDGE_CURVE('',#442,#419,#444,.T.);
#442 = VERTEX_POINT('',#443);
#443 = CARTESIAN_POINT('',(16.5,0.,4.866025403784));
#444 = SURFACE_CURVE('',#445,(#525,#608),.PCURVE_S1.);
#445 = B_SPLINE_CURVE_WITH_KNOTS('',8,(#446,#447,#448,#449,#450,#451,
    #452,#453,#454,#455,#456,#457,#458,#459,#460,#461,#462,#463,#464,
    #465,#466,#467,#468,#469,#470,#471,#472,#473,#474,#475,#476,#477,
    #478,#479,#480,#481,#482,#483,#484,#485,#486,#487,#488,#489,#490,
    #491,#492,#493,#494,#495,#496,#497,#498,#499,#500,#501,#502,#503,
    #504,#505,#506,#507,#508,#509,#510,#511,#512,#513,#514,#515,#516,
    #517,#518,#519,#520,#521,#522,#523,#524),.UNSPECIFIED.,.F.,.F.,(9,7,
    7,7,7,7,7,7,7,7,7,9),(0.,0.33635222544,0.424325048281,0.466799971419
    ,0.484152365855,0.496575960379,0.510934806028,0.534951653568,
    0.564967085909,0.603364041345,0.734877185919,1.),.UNSPECIFIED.);
#446 = CARTESIAN_POINT('',(16.5,0.,4.866025403784));
#447 = CARTESIAN_POINT('',(16.5,0.386912611248,4.866025403784));
#448 = CARTESIAN_POINT('',(16.489631060378,0.76260676184,4.860039668294)
  );
#449 = CARTESIAN_POINT('',(16.469945300247,1.133797721588,4.848669407324
    ));
#450 = CARTESIAN_POINT('',(16.440909895983,1.507048161692,4.830993773809
    ));
#451 = CARTESIAN_POINT('',(16.401574664233,1.885657283496,4.805009150792
    ));
#452 = CARTESIAN_POINT('',(16.35127646191,2.266931701801,4.767389923482)
  );
#453 = CARTESIAN_POINT('',(16.290845841008,2.643111303383,4.712454415176
    ));
#454 = CARTESIAN_POINT('',(16.209030284443,3.086433648773,4.612441486301
    ));
#455 = CARTESIAN_POINT('',(16.191811573292,3.176399672264,4.590098070376
    ));
#456 = CARTESIAN_POINT('',(16.174213793659,3.265320633277,4.565756285515
    ));
#457 = CARTESIAN_POINT('',(16.156171047684,3.353596628115,4.538974273988
    ));
#458 = CARTESIAN_POINT('',(16.137710548649,3.44110324549,4.509262497823)
  );
#459 = CARTESIAN_POINT('',(16.11899137091,3.527154467521,4.476098601907)
  );
#460 = CARTESIAN_POINT('',(16.100345637442,3.610452740622,4.438953009505
    ));
#461 = CARTESIAN_POINT('',(16.073620065987,3.726962958888,4.37722658997)
  );
#462 = CARTESIAN_POINT('',(16.065039355891,3.763901056301,4.356028567432
    ));
#463 = CARTESIAN_POINT('',(16.056600796604,3.799793076816,4.333567061857
    ));
#464 = CARTESIAN_POINT('',(16.048354808651,3.834461901283,4.309679781241
    ));
#465 = CARTESIAN_POINT('',(16.040386656155,3.867595880032,4.284211146525
    ));
#466 = CARTESIAN_POINT('',(16.032820239508,3.898743662777,4.257018041402
    ));
#467 = CARTESIAN_POINT('',(16.025820475729,3.927308701481,4.227976427728
    ));
#468 = CARTESIAN_POINT('',(16.017050656561,3.962852636032,4.18432937858)
  );
#469 = CARTESIAN_POINT('',(16.014632589734,3.972620003826,4.171327952827
    ));
#470 = CARTESIAN_POINT('',(16.012359247006,3.981774588988,4.157997551154
    ));
#471 = CARTESIAN_POINT('',(16.010249077707,3.990248436236,4.144351752291
    ));
#472 = CARTESIAN_POINT('',(16.008319799532,3.997976575574,4.130404711816
    ));
#473 = CARTESIAN_POINT('',(16.006588398547,4.004897022293,4.116171162155
    ));
#474 = CARTESIAN_POINT('',(16.005071129187,4.010950776969,4.101666412578
    ));
#475 = CARTESIAN_POINT('',(16.002861635384,4.019755443318,4.076338756173
    ));
#476 = CARTESIAN_POINT('',(16.002057952217,4.022953894659,4.065646540156
    ));
#477 = CARTESIAN_POINT('',(16.001379108977,4.025652727541,4.054849773556
    ));
#478 = CARTESIAN_POINT('',(16.000830463608,4.027832233977,4.04396852569)
  );
#479 = CARTESIAN_POINT('',(16.000416087776,4.029477449939,4.033022862793
    ));
#480 = CARTESIAN_POINT('',(16.00013876687,4.030578155365,4.022032848015)
  );
#481 = CARTESIAN_POINT('',(16.,4.031128874149,4.011018541423));
#482 = CARTESIAN_POINT('',(16.,4.031128874149,3.987265075718));
#483 = CARTESIAN_POINT('',(16.000185380006,4.030393222643,3.974538991355
    ));
#484 = CARTESIAN_POINT('',(16.00055562935,4.028923688893,3.96185132504)
  );
#485 = CARTESIAN_POINT('',(16.00110806711,4.026730056414,3.949231651488)
  );
#486 = CARTESIAN_POINT('',(16.001837842112,4.023830122974,3.936709541998
    ));
#487 = CARTESIAN_POINT('',(16.002737932926,4.020249700589,3.924314564456
    ));
#488 = CARTESIAN_POINT('',(16.003799147869,4.016022615532,3.912076283329
    ));
#489 = CARTESIAN_POINT('',(16.007035625794,4.003108778787,3.879865841521
    ));
#490 = CARTESIAN_POINT('',(16.009476725946,3.993348881655,3.860263405065
    ));
#491 = CARTESIAN_POINT('',(16.012289942362,3.982069864236,3.841234987553
    ));
#492 = CARTESIAN_POINT('',(16.015431869425,3.969428804833,3.822795898236
    ));
#493 = CARTESIAN_POINT('',(16.018859499719,3.955581064693,3.804958818718
    ));
#494 = CARTESIAN_POINT('',(16.022530544737,3.940680339958,3.787733903296
    ));
#495 = CARTESIAN_POINT('',(16.0264037556,3.92487871361,3.771128879313));
#496 = CARTESIAN_POINT('',(16.035482658468,3.887640577775,3.735178226742
    ));
#497 = CARTESIAN_POINT('',(16.04079887753,3.865703138103,3.716107327534)
  );
#498 = CARTESIAN_POINT('',(16.046330669705,3.842720601566,3.697892092161
    ));
#499 = CARTESIAN_POINT('',(16.05203059019,3.818865316587,3.680484897556)
  );
#500 = CARTESIAN_POINT('',(16.057860612988,3.79427578135,3.663835154019)
  );
#501 = CARTESIAN_POINT('',(16.063791763273,3.769056658292,3.647889603932
    ));
#502 = CARTESIAN_POINT('',(16.069803749753,3.743278788593,3.632592620484
    ));
#503 = CARTESIAN_POINT('',(16.083663462899,3.683335717436,3.599073850243
    ));
#504 = CARTESIAN_POINT('',(16.091556269179,3.64883292653,3.58122506195)
  );
#505 = CARTESIAN_POINT('',(16.099515243541,3.613644995335,3.564275400659
    ));
#506 = CARTESIAN_POINT('',(16.107504060548,3.577906934548,3.548159910996
    ));
#507 = CARTESIAN_POINT('',(16.115497000155,3.541714565586,3.532813623096
    ));
#508 = CARTESIAN_POINT('',(16.123478106189,3.505124482006,3.518171752637
    ));
#509 = CARTESIAN_POINT('',(16.131440344846,3.468154010905,3.504169900875
    ));
#510 = CARTESIAN_POINT('',(16.16659513505,3.302775732159,3.444760167408)
  );
#511 = CARTESIAN_POINT('',(16.1938156757,3.169018434151,3.405165847129)
  );
#512 = CARTESIAN_POINT('',(16.22023220448,3.032474776103,3.371031741423)
  );
#513 = CARTESIAN_POINT('',(16.245429820453,2.894950789505,3.341459848721
    ));
#514 = CARTESIAN_POINT('',(16.269275703366,2.757246538128,3.315645887308
    ));
#515 = CARTESIAN_POINT('',(16.291813254224,2.619270552655,3.292903731285
    ));
#516 = CARTESIAN_POINT('',(16.313172066403,2.480119400852,3.272668734413
    ));
#517 = CARTESIAN_POINT('',(16.374474552516,2.051877383666,3.217862526714
    ));
#518 = CARTESIAN_POINT('',(16.410361206095,1.760310213081,3.190409984557
    ));
#519 = CARTESIAN_POINT('',(16.440302434361,1.467164085767,3.169981711164
    ));
#520 = CARTESIAN_POINT('',(16.464142876805,1.174152638866,3.154992824159
    ));
#521 = CARTESIAN_POINT('',(16.481985997086,0.881694476283,3.144375307094
    ));
#522 = CARTESIAN_POINT('',(16.493940543426,0.589275838306,3.137472913863
    ));
#523 = CARTESIAN_POINT('',(16.5,0.29576527577,3.133974596216));
#524 = CARTESIAN_POINT('',(16.5,0.,3.133974596216));
#525 = PCURVE('',#129,#526);
#526 = DEFINITIONAL_REPRESENTATION('',(#527),#607);
#527 = B_SPLINE_CURVE_WITH_KNOTS('',8,(#528,#529,#530,#531,#532,#533,
    #534,#535,#536,#537,#538,#539,#540,#541,#542,#543,#544,#545,#546,
    #547,#548,#549,#550,#551,#552,#553,#554,#555,#556,#557,#558,#559,
    #560,#561,#562,#563,#564,#565,#566,#567,#568,#569,#570,#571,#572,
    #573,#574,#575,#576,#577,#578,#579,#580,#581,#582,#583,#584,#585,
    #586,#587,#588,#589,#590,#591,#592,#593,#594,#595,#596,#597,#598,
    #599,#600,#601,#602,#603,#604,#605,#606),.UNSPECIFIED.,.F.,.F.,(9,7,
    7,7,7,7,7,7,7,7,7,9),(0.,0.33635222544,0.424325048281,0.466799971419
    ,0.484152365855,0.496575960379,0.510934806028,0.534951653568,
    0.564967085909,0.603364041345,0.734877185919,1.),.UNSPECIFIED.);
#528 = CARTESIAN_POINT('',(0.,-3.366025403784));
#529 = CARTESIAN_POINT('',(-2.344924916653E-02,-3.366025403784));
#530 = CARTESIAN_POINT('',(-4.621859731736E-02,-3.360039668294));
#531 = CARTESIAN_POINT('',(-6.873464120518E-02,-3.348669407324));
#532 = CARTESIAN_POINT('',(-9.141008180562E-02,-3.330993773809));
#533 = CARTESIAN_POINT('',(-0.114462938379,-3.305009150792));
#534 = CARTESIAN_POINT('',(-0.137755399639,-3.267389923482));
#535 = CARTESIAN_POINT('',(-0.160840250415,-3.212454415176));
#536 = CARTESIAN_POINT('',(-0.188161990026,-3.112441486301));
#537 = CARTESIAN_POINT('',(-0.193713321625,-3.090098070376));
#538 = CARTESIAN_POINT('',(-0.199206812243,-3.065756285515));
#539 = CARTESIAN_POINT('',(-0.204667266477,-3.038974273988));
#540 = CARTESIAN_POINT('',(-0.210087213852,-3.009262497823));
#541 = CARTESIAN_POINT('',(-0.215424245672,-2.976098601907));
#542 = CARTESIAN_POINT('',(-0.220597484974,-2.938953009505));
#543 = CARTESIAN_POINT('',(-0.227842099105,-2.87722658997));
#544 = CARTESIAN_POINT('',(-0.230140372332,-2.856028567432));
#545 = CARTESIAN_POINT('',(-0.232374945166,-2.833567061857));
#546 = CARTESIAN_POINT('',(-0.234534688293,-2.809679781241));
#547 = CARTESIAN_POINT('',(-0.236600047659,-2.784211146525));
#548 = CARTESIAN_POINT('',(-0.238542684834,-2.757018041402));
#549 = CARTESIAN_POINT('',(-0.240325117268,-2.727976427728));
#550 = CARTESIAN_POINT('',(-0.242543895969,-2.68432937858));
#551 = CARTESIAN_POINT('',(-0.24315372808,-2.671327952827));
#552 = CARTESIAN_POINT('',(-0.243725402421,-2.657997551154));
#553 = CARTESIAN_POINT('',(-0.244254652758,-2.644351752291));
#554 = CARTESIAN_POINT('',(-0.244737398995,-2.630404711816));
#555 = CARTESIAN_POINT('',(-0.24516974717,-2.616171162155));
#556 = CARTESIAN_POINT('',(-0.24554798946,-2.601666412578));
#557 = CARTESIAN_POINT('',(-0.246098151011,-2.576338756173));
#558 = CARTESIAN_POINT('',(-0.246298022388,-2.565646540156));
#559 = CARTESIAN_POINT('',(-0.246466682928,-2.554849773556));
#560 = CARTESIAN_POINT('',(-0.24660289509,-2.54396852569));
#561 = CARTESIAN_POINT('',(-0.246705719172,-2.533022862793));
#562 = CARTESIAN_POINT('',(-0.246774513307,-2.522032848015));
#563 = CARTESIAN_POINT('',(-0.24680893347,-2.511018541423));
#564 = CARTESIAN_POINT('',(-0.24680893347,-2.487265075718));
#565 = CARTESIAN_POINT('',(-0.246762954707,-2.474538991355));
#566 = CARTESIAN_POINT('',(-0.246671108744,-2.46185132504));
#567 = CARTESIAN_POINT('',(-0.246534010254,-2.449231651488));
#568 = CARTESIAN_POINT('',(-0.246352777021,-2.436709541998));
#569 = CARTESIAN_POINT('',(-0.246129029936,-2.424314564456));
#570 = CARTESIAN_POINT('',(-0.245864893005,-2.412076283329));
#571 = CARTESIAN_POINT('',(-0.245058030863,-2.379865841521));
#572 = CARTESIAN_POINT('',(-0.244448300903,-2.360263405065));
#573 = CARTESIAN_POINT('',(-0.24374378235,-2.341234987553));
#574 = CARTESIAN_POINT('',(-0.242954348395,-2.322795898236));
#575 = CARTESIAN_POINT('',(-0.242089764863,-2.304958818718));
#576 = CARTESIAN_POINT('',(-0.24115968854,-2.287733903296));
#577 = CARTESIAN_POINT('',(-0.240173665507,-2.271128879313));
#578 = CARTESIAN_POINT('',(-0.237850701347,-2.235178226742));
#579 = CARTESIAN_POINT('',(-0.236482678193,-2.216107327534));
#580 = CARTESIAN_POINT('',(-0.23505002032,-2.197892092161));
#581 = CARTESIAN_POINT('',(-0.233563552036,-2.180484897556));
#582 = CARTESIAN_POINT('',(-0.232031967989,-2.163835154019));
#583 = CARTESIAN_POINT('',(-0.230461839514,-2.147889603932));
#584 = CARTESIAN_POINT('',(-0.228857620984,-2.132592620484));
#585 = CARTESIAN_POINT('',(-0.225128863739,-2.099073850243));
#586 = CARTESIAN_POINT('',(-0.222983775653,-2.08122506195));
#587 = CARTESIAN_POINT('',(-0.220797313491,-2.064275400659));
#588 = CARTESIAN_POINT('',(-0.21857792885,-2.048159910996));
#589 = CARTESIAN_POINT('',(-0.216331612725,-2.032813623096));
#590 = CARTESIAN_POINT('',(-0.21406190491,-2.018171752637));
#591 = CARTESIAN_POINT('',(-0.21176990341,-2.004169900875));
#592 = CARTESIAN_POINT('',(-0.20152302714,-1.944760167408));
#593 = CARTESIAN_POINT('',(-0.193250673443,-1.905165847129));
#594 = CARTESIAN_POINT('',(-0.184822513793,-1.871031741424));
#595 = CARTESIAN_POINT('',(-0.176349796584,-1.841459848721));
#596 = CARTESIAN_POINT('',(-0.167880662613,-1.815645887308));
#597 = CARTESIAN_POINT('',(-0.159408305592,-1.792903731285));
#598 = CARTESIAN_POINT('',(-0.150876571748,-1.772668734413));
#599 = CARTESIAN_POINT('',(-0.124657937413,-1.717862526714));
#600 = CARTESIAN_POINT('',(-0.106857315214,-1.690409984557));
#601 = CARTESIAN_POINT('',(-8.900482231844E-02,-1.669981711164));
#602 = CARTESIAN_POINT('',(-7.119531687056E-02,-1.654992824159));
#603 = CARTESIAN_POINT('',(-5.34447974242E-02,-1.644375307094));
#604 = CARTESIAN_POINT('',(-3.571369005778E-02,-1.637472913863));
#605 = CARTESIAN_POINT('',(-1.792516822847E-02,-1.633974596216));
#606 = CARTESIAN_POINT('',(0.,-1.633974596216));
#607 = ( GEOMETRIC_REPRESENTATION_CONTEXT(2) 
PARAMETRIC_REPRESENTATION_CONTEXT() REPRESENTATION_CONTEXT('2D SPACE',''
  ) );
#608 = PCURVE('',#609,#614);
#609 = CYLINDRICAL_SURFACE('',#610,1.);
#610 = AXIS2_PLACEMENT_3D('',#611,#612,#613);
#611 = CARTESIAN_POINT('',(17.,0.,4.));
#612 = DIRECTION('',(-0.,1.,-0.));
#613 = DIRECTION('',(1.,0.,0.));
#614 = DEFINITIONAL_REPRESENTATION('',(#615),#695);
#615 = B_SPLINE_CURVE_WITH_KNOTS('',8,(#616,#617,#618,#619,#620,#621,
    #622,#623,#624,#625,#626,#627,#628,#629,#630,#631,#632,#633,#634,
    #635,#636,#637,#638,#639,#640,#641,#642,#643,#644,#645,#646,#647,
    #648,#649,#650,#651,#652,#653,#654,#655,#656,#657,#658,#659,#660,
    #661,#662,#663,#664,#665,#666,#667,#668,#669,#670,#671,#672,#673,
    #674,#675,#676,#677,#678,#679,#680,#681,#682,#683,#684,#685,#686,
    #687,#688,#689,#690,#691,#692,#693,#694),.UNSPECIFIED.,.F.,.F.,(9,7,
    7,7,7,7,7,7,7,7,7,9),(0.,0.33635222544,0.424325048281,0.466799971419
    ,0.484152365855,0.496575960379,0.510934806028,0.534951653568,
    0.564967085909,0.603364041345,0.734877185919,1.),.UNSPECIFIED.);
#616 = CARTESIAN_POINT('',(-2.094395102393,0.));
#617 = CARTESIAN_POINT('',(-2.094395102393,0.386912611248));
#618 = CARTESIAN_POINT('',(-2.106368313547,0.76260676184));
#619 = CARTESIAN_POINT('',(-2.129098737158,1.133797721588));
#620 = CARTESIAN_POINT('',(-2.163089739359,1.507048161692));
#621 = CARTESIAN_POINT('',(-2.210135595356,1.885657283496));
#622 = CARTESIAN_POINT('',(-2.272732476421,2.266931701801));
#623 = CARTESIAN_POINT('',(-2.35351705998,2.643111303383));
#624 = CARTESIAN_POINT('',(-2.48273149895,3.086433648773));
#625 = CARTESIAN_POINT('',(-2.510928252549,3.176399672264));
#626 = CARTESIAN_POINT('',(-2.540940029823,3.265320633277));
#627 = CARTESIAN_POINT('',(-2.573194957101,3.353596628115));
#628 = CARTESIAN_POINT('',(-2.608121147573,3.44110324549));
#629 = CARTESIAN_POINT('',(-2.646133841611,3.527154467521));
#630 = CARTESIAN_POINT('',(-2.687630285234,3.610452740622));
#631 = CARTESIAN_POINT('',(-2.754893997875,3.726962958888));
#632 = CARTESIAN_POINT('',(-2.777756291456,3.763901056301));
#633 = CARTESIAN_POINT('',(-2.80173756466,3.799793076816));
#634 = CARTESIAN_POINT('',(-2.826988672412,3.834461901283));
#635 = CARTESIAN_POINT('',(-2.853649803588,3.867595880032));
#636 = CARTESIAN_POINT('',(-2.881848678092,3.898743662777));
#637 = CARTESIAN_POINT('',(-2.911700124791,3.927308701481));
#638 = CARTESIAN_POINT('',(-2.956219498411,3.962852636032));
#639 = CARTESIAN_POINT('',(-2.969442477707,3.972620003826));
#640 = CARTESIAN_POINT('',(-2.982962778774,3.981774588988));
#641 = CARTESIAN_POINT('',(-2.996767407952,3.990248436236));
#642 = CARTESIAN_POINT('',(-3.010843577347,3.997976575574));
#643 = CARTESIAN_POINT('',(-3.025178704835,4.004897022293));
#644 = CARTESIAN_POINT('',(-3.039760414061,4.010950776969));
#645 = CARTESIAN_POINT('',(-3.065184261957,4.019755443318));
#646 = CARTESIAN_POINT('',(-3.075905801148,4.022953894659));
#647 = CARTESIAN_POINT('',(-3.086722531139,4.025652727541));
#648 = CARTESIAN_POINT('',(-3.097615978786,4.027832233977));
#649 = CARTESIAN_POINT('',(-3.108567818674,4.029477449939));
#650 = CARTESIAN_POINT('',(-3.11955987312,4.030578155365));
#651 = CARTESIAN_POINT('',(-3.130574112167,4.031128874149));
#652 = CARTESIAN_POINT('',(-3.154327577871,4.031128874149));
#653 = CARTESIAN_POINT('',(-3.167053531601,4.030393222643));
#654 = CARTESIAN_POINT('',(-3.179744347754,4.028923688893));
#655 = CARTESIAN_POINT('',(-3.192373576074,4.026730056414));
#656 = CARTESIAN_POINT('',(-3.204914483077,4.023830122974));
#657 = CARTESIAN_POINT('',(-3.217340052049,4.020249700589));
#658 = CARTESIAN_POINT('',(-3.229622983046,4.016022615532));
#659 = CARTESIAN_POINT('',(-3.261995615791,4.003108778787));
#660 = CARTESIAN_POINT('',(-3.281743883616,3.993348881655));
#661 = CARTESIAN_POINT('',(-3.300970902659,3.982069864236));
#662 = CARTESIAN_POINT('',(-3.319667061805,3.969428804833));
#663 = CARTESIAN_POINT('',(-3.337822879769,3.955581064693));
#664 = CARTESIAN_POINT('',(-3.355429152333,3.940680339958));
#665 = CARTESIAN_POINT('',(-3.372477099589,3.92487871361));
#666 = CARTESIAN_POINT('',(-3.40955641859,3.887640577775));
#667 = CARTESIAN_POINT('',(-3.429348550239,3.865703138103));
#668 = CARTESIAN_POINT('',(-3.448377044776,3.842720601566));
#669 = CARTESIAN_POINT('',(-3.466685538471,3.818865316587));
#670 = CARTESIAN_POINT('',(-3.484319706493,3.79427578135));
#671 = CARTESIAN_POINT('',(-3.501327802202,3.769056658292));
#672 = CARTESIAN_POINT('',(-3.517761196433,3.743278788593));
#673 = CARTESIAN_POINT('',(-3.554032391711,3.683335717436));
#674 = CARTESIAN_POINT('',(-3.573542748258,3.64883292653));
#675 = CARTESIAN_POINT('',(-3.592260188509,3.613644995335));
#676 = CARTESIAN_POINT('',(-3.610239417708,3.577906934548));
#677 = CARTESIAN_POINT('',(-3.627536117278,3.541714565586));
#678 = CARTESIAN_POINT('',(-3.644207417848,3.505124482006));
#679 = CARTESIAN_POINT('',(-3.660312372266,3.468154010905));
#680 = CARTESIAN_POINT('',(-3.729344072991,3.302775732159));
#681 = CARTESIAN_POINT('',(-3.777281827486,3.169018434151));
#682 = CARTESIAN_POINT('',(-3.820343092705,3.032474776104));
#683 = CARTESIAN_POINT('',(-3.859122326952,2.894950789505));
#684 = CARTESIAN_POINT('',(-3.894217197704,2.757246538128));
#685 = CARTESIAN_POINT('',(-3.926207856622,2.619270552655));
#686 = CARTESIAN_POINT('',(-3.955617517761,2.480119400852));
#687 = CARTESIAN_POINT('',(-4.037847166951,2.051877383666));
#688 = CARTESIAN_POINT('',(-4.082898491045,1.760310213081));
#689 = CARTESIAN_POINT('',(-4.119085785065,1.467164085767));
#690 = CARTESIAN_POINT('',(-4.14723031417,1.174152638866));
#691 = CARTESIAN_POINT('',(-4.167987226739,0.881694476283));
#692 = CARTESIAN_POINT('',(-4.181794113228,0.589275838306));
#693 = CARTESIAN_POINT('',(-4.188790204786,0.29576527577));
#694 = CARTESIAN_POINT('',(-4.188790204786,0.));
#695 = ( GEOMETRIC_REPRESENTATION_CONTEXT(2) 
PARAMETRIC_REPRESENTATION_CONTEXT() REPRESENTATION_CONTEXT('2D SPACE',''
  ) );
#696 = ORIENTED_EDGE('',*,*,#697,.T.);
#697 = EDGE_CURVE('',#442,#113,#698,.T.);
#698 = SEAM_CURVE('',#699,(#703,#710),.PCURVE_S1.);
#699 = LINE('',#700,#701);
#700 = CARTESIAN_POINT('',(16.5,0.,1.5));
#701 = VECTOR('',#702,1.);
#702 = DIRECTION('',(0.,0.,1.));
#703 = PCURVE('',#129,#704);
#704 = DEFINITIONAL_REPRESENTATION('',(#705),#709);
#705 = LINE('',#706,#707);
#706 = CARTESIAN_POINT('',(-6.28318530718,0.));
#707 = VECTOR('',#708,1.);
#708 = DIRECTION('',(-0.,-1.));
#709 = ( GEOMETRIC_REPRESENTATION_CONTEXT(2) 
PARAMETRIC_REPRESENTATION_CONTEXT() REPRESENTATION_CONTEXT('2D SPACE',''
  ) );
#710 = PCURVE('',#129,#711);
#711 = DEFINITIONAL_REPRESENTATION('',(#712),#716);
#712 = LINE('',#713,#714);
#713 = CARTESIAN_POINT('',(-0.,0.));
#714 = VECTOR('',#715,1.);
#715 = DIRECTION('',(-0.,-1.));
#716 = ( GEOMETRIC_REPRESENTATION_CONTEXT(2) 
PARAMETRIC_REPRESENTATION_CONTEXT() REPRESENTATION_CONTEXT('2D SPACE',''
  ) );
#717 = ORIENTED_EDGE('',*,*,#112,.T.);
#718 = ORIENTED_EDGE('',*,*,#697,.F.);
#719 = ORIENTED_EDGE('',*,*,#720,.T.);
#720 = EDGE_CURVE('',#442,#419,#721,.T.);
#721 = SURFACE_CURVE('',#722,(#802,#885),.PCURVE_S1.);
#722 = B_SPLINE_CURVE_WITH_KNOTS('',8,(#723,#724,#725,#726,#727,#728,
    #729,#730,#731,#732,#733,#734,#735,#736,#737,#738,#739,#740,#741,
    #742,#743,#744,#745,#746,#747,#748,#749,#750,#751,#752,#753,#754,
    #755,#756,#757,#758,#759,#760,#761,#762,#763,#764,#765,#766,#767,
    #768,#769,#770,#771,#772,#773,#774,#775,#776,#777,#778,#779,#780,
    #781,#782,#783,#784,#785,#786,#787,#788,#789,#790,#791,#792,#793,
    #794,#795,#796,#797,#798,#799,#800,#801),.UNSPECIFIED.,.F.,.F.,(9,7,
    7,7,7,7,7,7,7,7,7,9),(0.,0.336352063757,0.42432484431,0.466799747032
    ,0.484152133141,0.496575721715,0.510934567438,0.534951426693,
    0.564966873677,0.603363847846,0.734877056577,1.),.UNSPECIFIED.);
#723 = CARTESIAN_POINT('',(16.5,-4.440892098501E-15,4.866025403784));
#724 = CARTESIAN_POINT('',(16.5,-0.386912611248,4.866025403784));
#725 = CARTESIAN_POINT('',(16.489631060378,-0.762606761845,
    4.860039668294));
#726 = CARTESIAN_POINT('',(16.469945300246,-1.133797721577,
    4.848669407322));
#727 = CARTESIAN_POINT('',(16.440909895985,-1.507048161694,
    4.830993773813));
#728 = CARTESIAN_POINT('',(16.40157466423,-1.885657283507,4.805009150787
    ));
#729 = CARTESIAN_POINT('',(16.351276461912,-2.26693170179,4.767389923485
    ));
#730 = CARTESIAN_POINT('',(16.290845841008,-2.643111303387,
    4.712454415175));
#731 = CARTESIAN_POINT('',(16.209030284443,-3.086433648773,
    4.612441486301));
#732 = CARTESIAN_POINT('',(16.191811573292,-3.176399672264,
    4.590098070376));
#733 = CARTESIAN_POINT('',(16.174213793659,-3.265320633277,
    4.565756285515));
#734 = CARTESIAN_POINT('',(16.156171047684,-3.353596628115,
    4.538974273988));
#735 = CARTESIAN_POINT('',(16.137710548649,-3.44110324549,4.509262497824
    ));
#736 = CARTESIAN_POINT('',(16.11899137091,-3.527154467521,4.476098601907
    ));
#737 = CARTESIAN_POINT('',(16.100345637442,-3.610452740622,
    4.438953009505));
#738 = CARTESIAN_POINT('',(16.073620065987,-3.726962958888,4.37722658997
    ));
#739 = CARTESIAN_POINT('',(16.065039355891,-3.763901056301,
    4.356028567432));
#740 = CARTESIAN_POINT('',(16.056600796604,-3.799793076816,
    4.333567061857));
#741 = CARTESIAN_POINT('',(16.048354808651,-3.834461901283,
    4.309679781241));
#742 = CARTESIAN_POINT('',(16.040386656155,-3.867595880032,
    4.284211146525));
#743 = CARTESIAN_POINT('',(16.032820239508,-3.898743662777,
    4.257018041402));
#744 = CARTESIAN_POINT('',(16.025820475729,-3.927308701481,
    4.227976427728));
#745 = CARTESIAN_POINT('',(16.017050656559,-3.962852636041,
    4.184329378569));
#746 = CARTESIAN_POINT('',(16.014632589733,-3.972620003831,
    4.171327952824));
#747 = CARTESIAN_POINT('',(16.012359247007,-3.981774588986,
    4.157997551161));
#748 = CARTESIAN_POINT('',(16.010249077708,-3.99024843623,4.144351752302
    ));
#749 = CARTESIAN_POINT('',(16.008319799533,-3.997976575569,
    4.130404711822));
#750 = CARTESIAN_POINT('',(16.006588398547,-4.004897022293,
    4.116171162149));
#751 = CARTESIAN_POINT('',(16.005071129186,-4.010950776973,
    4.101666412565));
#752 = CARTESIAN_POINT('',(16.002861635384,-4.019755443318,
    4.076338756173));
#753 = CARTESIAN_POINT('',(16.002057952217,-4.022953894659,
    4.065646540156));
#754 = CARTESIAN_POINT('',(16.001379108977,-4.025652727541,
    4.054849773556));
#755 = CARTESIAN_POINT('',(16.000830463608,-4.027832233977,4.04396852569
    ));
#756 = CARTESIAN_POINT('',(16.000416087776,-4.029477449939,
    4.033022862793));
#757 = CARTESIAN_POINT('',(16.00013876687,-4.030578155365,4.022032848015
    ));
#758 = CARTESIAN_POINT('',(16.,-4.031128874149,4.011018541423));
#759 = CARTESIAN_POINT('',(16.,-4.031128874149,3.987265069554));
#760 = CARTESIAN_POINT('',(16.000185379782,-4.030393223536,
    3.974538988901));
#761 = CARTESIAN_POINT('',(16.000555628985,-4.028923690346,
    3.961851328108));
#762 = CARTESIAN_POINT('',(16.00110806684,-4.026730057492,3.94923165703)
  );
#763 = CARTESIAN_POINT('',(16.001837842165,-4.023830122761,
    3.936709545315));
#764 = CARTESIAN_POINT('',(16.00273793337,-4.020249698817,3.924314562399
    ));
#765 = CARTESIAN_POINT('',(16.003799148453,-4.016022613199,
    3.912076277512));
#766 = CARTESIAN_POINT('',(16.007035625794,-4.003108778787,
    3.879865841521));
#767 = CARTESIAN_POINT('',(16.009476725946,-3.993348881655,
    3.860263405065));
#768 = CARTESIAN_POINT('',(16.012289942362,-3.982069864236,
    3.841234987553));
#769 = CARTESIAN_POINT('',(16.015431869425,-3.969428804833,
    3.822795898237));
#770 = CARTESIAN_POINT('',(16.018859499719,-3.955581064693,
    3.804958818718));
#771 = CARTESIAN_POINT('',(16.022530544737,-3.940680339958,
    3.787733903296));
#772 = CARTESIAN_POINT('',(16.026403755601,-3.92487871361,3.771128879312
    ));
#773 = CARTESIAN_POINT('',(16.035482658468,-3.887640577775,
    3.735178226741));
#774 = CARTESIAN_POINT('',(16.04079887753,-3.865703138103,3.716107327534
    ));
#775 = CARTESIAN_POINT('',(16.046330669705,-3.842720601566,
    3.697892092161));
#776 = CARTESIAN_POINT('',(16.05203059019,-3.818865316587,3.680484897556
    ));
#777 = CARTESIAN_POINT('',(16.057860612988,-3.79427578135,3.663835154019
    ));
#778 = CARTESIAN_POINT('',(16.063791763273,-3.769056658292,
    3.647889603932));
#779 = CARTESIAN_POINT('',(16.069803749753,-3.743278788593,
    3.632592620484));
#780 = CARTESIAN_POINT('',(16.083663462899,-3.683335717436,
    3.599073850243));
#781 = CARTESIAN_POINT('',(16.091556269179,-3.64883292653,3.58122506195)
  );
#782 = CARTESIAN_POINT('',(16.099515243541,-3.613644995335,
    3.564275400659));
#783 = CARTESIAN_POINT('',(16.107504060548,-3.577906934548,
    3.548159910996));
#784 = CARTESIAN_POINT('',(16.115497000155,-3.541714565587,
    3.532813623096));
#785 = CARTESIAN_POINT('',(16.123478106189,-3.505124482006,
    3.518171752637));
#786 = CARTESIAN_POINT('',(16.131440344846,-3.468154010905,
    3.504169900875));
#787 = CARTESIAN_POINT('',(16.16659513505,-3.302775732159,3.444760167408
    ));
#788 = CARTESIAN_POINT('',(16.1938156757,-3.16901843415,3.405165847129)
  );
#789 = CARTESIAN_POINT('',(16.220232204479,-3.032474776104,
    3.371031741424));
#790 = CARTESIAN_POINT('',(16.245429820452,-2.894950789505,
    3.341459848721));
#791 = CARTESIAN_POINT('',(16.269275703366,-2.757246538127,
    3.315645887307));
#792 = CARTESIAN_POINT('',(16.291813254224,-2.619270552655,
    3.292903731285));
#793 = CARTESIAN_POINT('',(16.313172066403,-2.480119400852,
    3.272668734413));
#794 = CARTESIAN_POINT('',(16.374474552516,-2.051877383663,
    3.217862526713));
#795 = CARTESIAN_POINT('',(16.410361206094,-1.760310213084,
    3.190409984558));
#796 = CARTESIAN_POINT('',(16.440302434361,-1.467164085769,
    3.169981711164));
#797 = CARTESIAN_POINT('',(16.464142876805,-1.174152638863,
    3.154992824159));
#798 = CARTESIAN_POINT('',(16.481985997086,-0.881694476281,
    3.144375307094));
#799 = CARTESIAN_POINT('',(16.493940543426,-0.589275838308,
    3.137472913863));
#800 = CARTESIAN_POINT('',(16.5,-0.29576527577,3.133974596216));
#801 = CARTESIAN_POINT('',(16.5,-4.440892098501E-15,3.133974596216));
#802 = PCURVE('',#129,#803);
#803 = DEFINITIONAL_REPRESENTATION('',(#804),#884);
#804 = B_SPLINE_CURVE_WITH_KNOTS('',8,(#805,#806,#807,#808,#809,#810,
    #811,#812,#813,#814,#815,#816,#817,#818,#819,#820,#821,#822,#823,
    #824,#825,#826,#827,#828,#829,#830,#831,#832,#833,#834,#835,#836,
    #837,#838,#839,#840,#841,#842,#843,#844,#845,#846,#847,#848,#849,
    #850,#851,#852,#853,#854,#855,#856,#857,#858,#859,#860,#861,#862,
    #863,#864,#865,#866,#867,#868,#869,#870,#871,#872,#873,#874,#875,
    #876,#877,#878,#879,#880,#881,#882,#883),.UNSPECIFIED.,.F.,.F.,(9,7,
    7,7,7,7,7,7,7,7,7,9),(0.,0.336352063757,0.42432484431,0.466799747032
    ,0.484152133141,0.496575721715,0.510934567438,0.534951426693,
    0.564966873677,0.603363847846,0.734877056577,1.),.UNSPECIFIED.);
#805 = CARTESIAN_POINT('',(-6.28318530718,-3.366025403784));
#806 = CARTESIAN_POINT('',(-6.259736058013,-3.366025403784));
#807 = CARTESIAN_POINT('',(-6.236966709862,-3.360039668294));
#808 = CARTESIAN_POINT('',(-6.214450665975,-3.348669407323));
#809 = CARTESIAN_POINT('',(-6.191775225374,-3.330993773812));
#810 = CARTESIAN_POINT('',(-6.1687223688,-3.305009150788));
#811 = CARTESIAN_POINT('',(-6.145429907541,-3.267389923485));
#812 = CARTESIAN_POINT('',(-6.122345056764,-3.212454415175));
#813 = CARTESIAN_POINT('',(-6.095023317154,-3.112441486301));
#814 = CARTESIAN_POINT('',(-6.089471985555,-3.090098070376));
#815 = CARTESIAN_POINT('',(-6.083978494936,-3.065756285515));
#816 = CARTESIAN_POINT('',(-6.078518040703,-3.038974273988));
#817 = CARTESIAN_POINT('',(-6.073098093328,-3.009262497823));
#818 = CARTESIAN_POINT('',(-6.067761061507,-2.976098601907));
#819 = CARTESIAN_POINT('',(-6.062587822205,-2.938953009505));
#820 = CARTESIAN_POINT('',(-6.055343208075,-2.87722658997));
#821 = CARTESIAN_POINT('',(-6.053044934847,-2.856028567432));
#822 = CARTESIAN_POINT('',(-6.050810362014,-2.833567061857));
#823 = CARTESIAN_POINT('',(-6.048650618887,-2.809679781241));
#824 = CARTESIAN_POINT('',(-6.04658525952,-2.784211146525));
#825 = CARTESIAN_POINT('',(-6.044642622345,-2.757018041402));
#826 = CARTESIAN_POINT('',(-6.042860189911,-2.727976427728));
#827 = CARTESIAN_POINT('',(-6.04064141121,-2.684329378569));
#828 = CARTESIAN_POINT('',(-6.040031579099,-2.671327952824));
#829 = CARTESIAN_POINT('',(-6.039459904759,-2.657997551161));
#830 = CARTESIAN_POINT('',(-6.038930654422,-2.644351752302));
#831 = CARTESIAN_POINT('',(-6.038447908185,-2.630404711822));
#832 = CARTESIAN_POINT('',(-6.038015560009,-2.616171162149));
#833 = CARTESIAN_POINT('',(-6.037637317719,-2.601666412565));
#834 = CARTESIAN_POINT('',(-6.037087156169,-2.576338756173));
#835 = CARTESIAN_POINT('',(-6.036887284792,-2.565646540156));
#836 = CARTESIAN_POINT('',(-6.036718624252,-2.554849773556));
#837 = CARTESIAN_POINT('',(-6.036582412089,-2.54396852569));
#838 = CARTESIAN_POINT('',(-6.036479588008,-2.533022862793));
#839 = CARTESIAN_POINT('',(-6.036410793872,-2.522032848015));
#840 = CARTESIAN_POINT('',(-6.03637637371,-2.511018541423));
#841 = CARTESIAN_POINT('',(-6.03637637371,-2.487265069554));
#842 = CARTESIAN_POINT('',(-6.036422352417,-2.474538988901));
#843 = CARTESIAN_POINT('',(-6.036514198345,-2.461851328108));
#844 = CARTESIAN_POINT('',(-6.036651296858,-2.44923165703));
#845 = CARTESIAN_POINT('',(-6.036832530172,-2.436709545315));
#846 = CARTESIAN_POINT('',(-6.037056277354,-2.424314562399));
#847 = CARTESIAN_POINT('',(-6.03732041432,-2.412076277512));
#848 = CARTESIAN_POINT('',(-6.038127276316,-2.379865841521));
#849 = CARTESIAN_POINT('',(-6.038737006276,-2.360263405065));
#850 = CARTESIAN_POINT('',(-6.03944152483,-2.341234987553));
#851 = CARTESIAN_POINT('',(-6.040230958785,-2.322795898237));
#852 = CARTESIAN_POINT('',(-6.041095542317,-2.304958818718));
#853 = CARTESIAN_POINT('',(-6.04202561864,-2.287733903296));
#854 = CARTESIAN_POINT('',(-6.043011641672,-2.271128879312));
#855 = CARTESIAN_POINT('',(-6.045334605832,-2.235178226741));
#856 = CARTESIAN_POINT('',(-6.046702628987,-2.216107327534));
#857 = CARTESIAN_POINT('',(-6.048135286859,-2.197892092161));
#858 = CARTESIAN_POINT('',(-6.049621755144,-2.180484897556));
#859 = CARTESIAN_POINT('',(-6.051153339191,-2.163835154019));
#860 = CARTESIAN_POINT('',(-6.052723467665,-2.147889603932));
#861 = CARTESIAN_POINT('',(-6.054327686196,-2.132592620484));
#862 = CARTESIAN_POINT('',(-6.058056443441,-2.099073850243));
#863 = CARTESIAN_POINT('',(-6.060201531527,-2.08122506195));
#864 = CARTESIAN_POINT('',(-6.062387993689,-2.064275400659));
#865 = CARTESIAN_POINT('',(-6.064607378329,-2.048159910996));
#866 = CARTESIAN_POINT('',(-6.066853694455,-2.032813623096));
#867 = CARTESIAN_POINT('',(-6.06912340227,-2.018171752637));
#868 = CARTESIAN_POINT('',(-6.071415403769,-2.004169900875));
#869 = CARTESIAN_POINT('',(-6.081662280039,-1.944760167408));
#870 = CARTESIAN_POINT('',(-6.089934633737,-1.905165847129));
#871 = CARTESIAN_POINT('',(-6.098362793387,-1.871031741424));
#872 = CARTESIAN_POINT('',(-6.106835510596,-1.841459848721));
#873 = CARTESIAN_POINT('',(-6.115304644566,-1.815645887307));
#874 = CARTESIAN_POINT('',(-6.123777001588,-1.792903731285));
#875 = CARTESIAN_POINT('',(-6.132308735432,-1.772668734413));
#876 = CARTESIAN_POINT('',(-6.158527369767,-1.717862526713));
#877 = CARTESIAN_POINT('',(-6.176327991965,-1.690409984558));
#878 = CARTESIAN_POINT('',(-6.194180484861,-1.669981711164));
#879 = CARTESIAN_POINT('',(-6.211989990309,-1.654992824159));
#880 = CARTESIAN_POINT('',(-6.229740509756,-1.644375307094));
#881 = CARTESIAN_POINT('',(-6.247471617122,-1.637472913863));
#882 = CARTESIAN_POINT('',(-6.265260138951,-1.633974596216));
#883 = CARTESIAN_POINT('',(-6.28318530718,-1.633974596216));
#884 = ( GEOMETRIC_REPRESENTATION_CONTEXT(2) 
PARAMETRIC_REPRESENTATION_CONTEXT() REPRESENTATION_CONTEXT('2D SPACE',''
  ) );
#885 = PCURVE('',#609,#886);
#886 = DEFINITIONAL_REPRESENTATION('',(#887),#967);
#887 = B_SPLINE_CURVE_WITH_KNOTS('',8,(#888,#889,#890,#891,#892,#893,
    #894,#895,#896,#897,#898,#899,#900,#901,#902,#903,#904,#905,#906,
    #907,#908,#909,#910,#911,#912,#913,#914,#915,#916,#917,#918,#919,
    #920,#921,#922,#923,#924,#925,#926,#927,#928,#929,#930,#931,#932,
    #933,#934,#935,#936,#937,#938,#939,#940,#941,#942,#943,#944,#945,
    #946,#947,#948,#949,#950,#951,#952,#953,#954,#955,#956,#957,#958,
    #959,#960,#961,#962,#963,#964,#965,#966),.UNSPECIFIED.,.F.,.F.,(9,7,
    7,7,7,7,7,7,7,7,7,9),(0.,0.336352063757,0.42432484431,0.466799747032
    ,0.484152133141,0.496575721715,0.510934567438,0.534951426693,
    0.564966873677,0.603363847846,0.734877056577,1.),.UNSPECIFIED.);
#888 = CARTESIAN_POINT('',(-2.094395102393,-4.440892098501E-15));
#889 = CARTESIAN_POINT('',(-2.094395102393,-0.386912611248));
#890 = CARTESIAN_POINT('',(-2.106368313547,-0.762606761845));
#891 = CARTESIAN_POINT('',(-2.129098737158,-1.133797721577));
#892 = CARTESIAN_POINT('',(-2.163089739356,-1.507048161694));
#893 = CARTESIAN_POINT('',(-2.210135595361,-1.885657283507));
#894 = CARTESIAN_POINT('',(-2.272732476417,-2.26693170179));
#895 = CARTESIAN_POINT('',(-2.353517059981,-2.643111303387));
#896 = CARTESIAN_POINT('',(-2.48273149895,-3.086433648773));
#897 = CARTESIAN_POINT('',(-2.510928252549,-3.176399672264));
#898 = CARTESIAN_POINT('',(-2.540940029823,-3.265320633277));
#899 = CARTESIAN_POINT('',(-2.573194957101,-3.353596628115));
#900 = CARTESIAN_POINT('',(-2.608121147573,-3.44110324549));
#901 = CARTESIAN_POINT('',(-2.646133841611,-3.527154467521));
#902 = CARTESIAN_POINT('',(-2.687630285234,-3.610452740622));
#903 = CARTESIAN_POINT('',(-2.754893997875,-3.726962958888));
#904 = CARTESIAN_POINT('',(-2.777756291456,-3.763901056301));
#905 = CARTESIAN_POINT('',(-2.80173756466,-3.799793076816));
#906 = CARTESIAN_POINT('',(-2.826988672412,-3.834461901283));
#907 = CARTESIAN_POINT('',(-2.853649803588,-3.867595880032));
#908 = CARTESIAN_POINT('',(-2.881848678092,-3.898743662777));
#909 = CARTESIAN_POINT('',(-2.911700124791,-3.927308701481));
#910 = CARTESIAN_POINT('',(-2.956219498422,-3.962852636041));
#911 = CARTESIAN_POINT('',(-2.96944247771,-3.972620003831));
#912 = CARTESIAN_POINT('',(-2.982962778767,-3.981774588986));
#913 = CARTESIAN_POINT('',(-2.99676740794,-3.99024843623));
#914 = CARTESIAN_POINT('',(-3.010843577341,-3.997976575569));
#915 = CARTESIAN_POINT('',(-3.02517870484,-4.004897022293));
#916 = CARTESIAN_POINT('',(-3.039760414074,-4.010950776973));
#917 = CARTESIAN_POINT('',(-3.065184261957,-4.019755443318));
#918 = CARTESIAN_POINT('',(-3.075905801148,-4.022953894659));
#919 = CARTESIAN_POINT('',(-3.086722531139,-4.025652727541));
#920 = CARTESIAN_POINT('',(-3.097615978786,-4.027832233977));
#921 = CARTESIAN_POINT('',(-3.108567818674,-4.029477449939));
#922 = CARTESIAN_POINT('',(-3.11955987312,-4.030578155365));
#923 = CARTESIAN_POINT('',(-3.130574112167,-4.031128874149));
#924 = CARTESIAN_POINT('',(-3.154327584036,-4.031128874149));
#925 = CARTESIAN_POINT('',(-3.167053534044,-4.030393223536));
#926 = CARTESIAN_POINT('',(-3.179744344669,-4.028923690346));
#927 = CARTESIAN_POINT('',(-3.19237357052,-4.026730057492));
#928 = CARTESIAN_POINT('',(-3.204914479765,-4.023830122761));
#929 = CARTESIAN_POINT('',(-3.217340054129,-4.020249698817));
#930 = CARTESIAN_POINT('',(-3.229622988893,-4.016022613199));
#931 = CARTESIAN_POINT('',(-3.261995615791,-4.003108778787));
#932 = CARTESIAN_POINT('',(-3.281743883616,-3.993348881655));
#933 = CARTESIAN_POINT('',(-3.300970902659,-3.982069864236));
#934 = CARTESIAN_POINT('',(-3.319667061805,-3.969428804833));
#935 = CARTESIAN_POINT('',(-3.337822879769,-3.955581064693));
#936 = CARTESIAN_POINT('',(-3.355429152334,-3.940680339958));
#937 = CARTESIAN_POINT('',(-3.372477099589,-3.92487871361));
#938 = CARTESIAN_POINT('',(-3.40955641859,-3.887640577775));
#939 = CARTESIAN_POINT('',(-3.429348550239,-3.865703138103));
#940 = CARTESIAN_POINT('',(-3.448377044776,-3.842720601566));
#941 = CARTESIAN_POINT('',(-3.466685538471,-3.818865316587));
#942 = CARTESIAN_POINT('',(-3.484319706493,-3.79427578135));
#943 = CARTESIAN_POINT('',(-3.501327802202,-3.769056658292));
#944 = CARTESIAN_POINT('',(-3.517761196433,-3.743278788593));
#945 = CARTESIAN_POINT('',(-3.554032391711,-3.683335717436));
#946 = CARTESIAN_POINT('',(-3.573542748258,-3.64883292653));
#947 = CARTESIAN_POINT('',(-3.592260188509,-3.613644995335));
#948 = CARTESIAN_POINT('',(-3.610239417707,-3.577906934548));
#949 = CARTESIAN_POINT('',(-3.627536117278,-3.541714565587));
#950 = CARTESIAN_POINT('',(-3.644207417848,-3.505124482006));
#951 = CARTESIAN_POINT('',(-3.660312372266,-3.468154010905));
#952 = CARTESIAN_POINT('',(-3.729344072991,-3.302775732159));
#953 = CARTESIAN_POINT('',(-3.777281827486,-3.16901843415));
#954 = CARTESIAN_POINT('',(-3.820343092705,-3.032474776104));
#955 = CARTESIAN_POINT('',(-3.859122326952,-2.894950789505));
#956 = CARTESIAN_POINT('',(-3.894217197704,-2.757246538127));
#957 = CARTESIAN_POINT('',(-3.926207856622,-2.619270552655));
#958 = CARTESIAN_POINT('',(-3.955617517761,-2.480119400852));
#959 = CARTESIAN_POINT('',(-4.037847166952,-2.051877383663));
#960 = CARTESIAN_POINT('',(-4.082898491044,-1.760310213084));
#961 = CARTESIAN_POINT('',(-4.119085785065,-1.467164085769));
#962 = CARTESIAN_POINT('',(-4.147230314171,-1.174152638863));
#963 = CARTESIAN_POINT('',(-4.167987226739,-0.881694476281));
#964 = CARTESIAN_POINT('',(-4.181794113228,-0.589275838308));
#965 = CARTESIAN_POINT('',(-4.188790204786,-0.29576527577));
#966 = CARTESIAN_POINT('',(-4.188790204786,-4.440892098501E-15));
#967 = ( GEOMETRIC_REPRESENTATION_CONTEXT(2) 
PARAMETRIC_REPRESENTATION_CONTEXT() REPRESENTATION_CONTEXT('2D SPACE',''
  ) );
#968 = ORIENTED_EDGE('',*,*,#418,.F.);
#969 = ADVANCED_FACE('',(#970),#168,.F.);
#970 = FACE_BOUND('',#971,.T.);
#971 = EDGE_LOOP('',(#972,#995,#996,#997));
#972 = ORIENTED_EDGE('',*,*,#973,.T.);
#973 = EDGE_CURVE('',#974,#148,#976,.T.);
#974 = VERTEX_POINT('',#975);
#975 = CARTESIAN_POINT('',(-4.85,-8.400446416709,0.));
#976 = SEAM_CURVE('',#977,(#981,#988),.PCURVE_S1.);
#977 = LINE('',#978,#979);
#978 = CARTESIAN_POINT('',(-4.85,-8.400446416709,-30.0000002));
#979 = VECTOR('',#980,1.);
#980 = DIRECTION('',(0.,0.,1.));
#981 = PCURVE('',#168,#982);
#982 = DEFINITIONAL_REPRESENTATION('',(#983),#987);
#983 = LINE('',#984,#985);
#984 = CARTESIAN_POINT('',(-0.,0.));
#985 = VECTOR('',#986,1.);
#986 = DIRECTION('',(-0.,-1.));
#987 = ( GEOMETRIC_REPRESENTATION_CONTEXT(2) 
PARAMETRIC_REPRESENTATION_CONTEXT() REPRESENTATION_CONTEXT('2D SPACE',''
  ) );
#988 = PCURVE('',#168,#989);
#989 = DEFINITIONAL_REPRESENTATION('',(#990),#994);
#990 = LINE('',#991,#992);
#991 = CARTESIAN_POINT('',(-6.28318530718,0.));
#992 = VECTOR('',#993,1.);
#993 = DIRECTION('',(-0.,-1.));
#994 = ( GEOMETRIC_REPRESENTATION_CONTEXT(2) 
PARAMETRIC_REPRESENTATION_CONTEXT() REPRESENTATION_CONTEXT('2D SPACE',''
  ) );
#995 = ORIENTED_EDGE('',*,*,#147,.F.);
#996 = ORIENTED_EDGE('',*,*,#973,.F.);
#997 = ORIENTED_EDGE('',*,*,#998,.T.);
#998 = EDGE_CURVE('',#974,#974,#999,.T.);
#999 = SURFACE_CURVE('',#1000,(#1005,#1012),.PCURVE_S1.);
#1000 = CIRCLE('',#1001,1.7);
#1001 = AXIS2_PLACEMENT_3D('',#1002,#1003,#1004);
#1002 = CARTESIAN_POINT('',(-4.,-6.928203230276,0.));
#1003 = DIRECTION('',(-0.,0.,-1.));
#1004 = DIRECTION('',(-0.5,-0.866025403784,0.));
#1005 = PCURVE('',#168,#1006);
#1006 = DEFINITIONAL_REPRESENTATION('',(#1007),#1011);
#1007 = LINE('',#1008,#1009);
#1008 = CARTESIAN_POINT('',(-6.28318530718,-30.0000002));
#1009 = VECTOR('',#1010,1.);
#1010 = DIRECTION('',(1.,-0.));
#1011 = ( GEOMETRIC_REPRESENTATION_CONTEXT(2) 
PARAMETRIC_REPRESENTATION_CONTEXT() REPRESENTATION_CONTEXT('2D SPACE',''
  ) );
#1012 = PCURVE('',#1013,#1018);
#1013 = PLANE('',#1014);
#1014 = AXIS2_PLACEMENT_3D('',#1015,#1016,#1017);
#1015 = CARTESIAN_POINT('',(-1.727292798997E-15,3.759188932048E-16,0.));
#1016 = DIRECTION('',(0.,0.,1.));
#1017 = DIRECTION('',(1.,0.,-0.));
#1018 = DEFINITIONAL_REPRESENTATION('',(#1019),#1027);
#1019 = ( BOUNDED_CURVE() B_SPLINE_CURVE(2,(#1020,#1021,#1022,#1023,
#1024,#1025,#1026),.UNSPECIFIED.,.T.,.F.) B_SPLINE_CURVE_WITH_KNOTS((1,2
    ,2,2,2,1),(-2.094395102393,0.,2.094395102393,4.188790204786,
6.28318530718,8.377580409573),.UNSPECIFIED.) CURVE() 
GEOMETRIC_REPRESENTATION_ITEM() RATIONAL_B_SPLINE_CURVE((1.,0.5,1.,0.5,
1.,0.5,1.)) REPRESENTATION_ITEM('') );
#1020 = CARTESIAN_POINT('',(-4.85,-8.400446416709));
#1021 = CARTESIAN_POINT('',(-7.4,-6.928203230276));
#1022 = CARTESIAN_POINT('',(-4.85,-5.455960043842));
#1023 = CARTESIAN_POINT('',(-2.3,-3.983716857408));
#1024 = CARTESIAN_POINT('',(-2.3,-6.928203230276));
#1025 = CARTESIAN_POINT('',(-2.3,-9.872689603143));
#1026 = CARTESIAN_POINT('',(-4.85,-8.400446416709));
#1027 = ( GEOMETRIC_REPRESENTATION_CONTEXT(2) 
PARAMETRIC_REPRESENTATION_CONTEXT() REPRESENTATION_CONTEXT('2D SPACE',''
  ) );
#1028 = ADVANCED_FACE('',(#1029),#203,.F.);
#1029 = FACE_BOUND('',#1030,.T.);
#1030 = EDGE_LOOP('',(#1031,#1054,#1055,#1056));
#1031 = ORIENTED_EDGE('',*,*,#1032,.T.);
#1032 = EDGE_CURVE('',#1033,#183,#1035,.T.);
#1033 = VERTEX_POINT('',#1034);
#1034 = CARTESIAN_POINT('',(-9.7,1.187907395173E-15,0.));
#1035 = SEAM_CURVE('',#1036,(#1040,#1047),.PCURVE_S1.);
#1036 = LINE('',#1037,#1038);
#1037 = CARTESIAN_POINT('',(-9.7,1.187907395173E-15,-30.0000002));
#1038 = VECTOR('',#1039,1.);
#1039 = DIRECTION('',(0.,0.,1.));
#1040 = PCURVE('',#203,#1041);
#1041 = DEFINITIONAL_REPRESENTATION('',(#1042),#1046);
#1042 = LINE('',#1043,#1044);
#1043 = CARTESIAN_POINT('',(-0.,0.));
#1044 = VECTOR('',#1045,1.);
#1045 = DIRECTION('',(-0.,-1.));
#1046 = ( GEOMETRIC_REPRESENTATION_CONTEXT(2) 
PARAMETRIC_REPRESENTATION_CONTEXT() REPRESENTATION_CONTEXT('2D SPACE',''
  ) );
#1047 = PCURVE('',#203,#1048);
#1048 = DEFINITIONAL_REPRESENTATION('',(#1049),#1053);
#1049 = LINE('',#1050,#1051);
#1050 = CARTESIAN_POINT('',(-6.28318530718,0.));
#1051 = VECTOR('',#1052,1.);
#1052 = DIRECTION('',(-0.,-1.));
#1053 = ( GEOMETRIC_REPRESENTATION_CONTEXT(2) 
PARAMETRIC_REPRESENTATION_CONTEXT() REPRESENTATION_CONTEXT('2D SPACE',''
  ) );
#1054 = ORIENTED_EDGE('',*,*,#182,.F.);
#1055 = ORIENTED_EDGE('',*,*,#1032,.F.);
#1056 = ORIENTED_EDGE('',*,*,#1057,.T.);
#1057 = EDGE_CURVE('',#1033,#1033,#1058,.T.);
#1058 = SURFACE_CURVE('',#1059,(#1064,#1071),.PCURVE_S1.);
#1059 = CIRCLE('',#1060,1.7);
#1060 = AXIS2_PLACEMENT_3D('',#1061,#1062,#1063);
#1061 = CARTESIAN_POINT('',(-8.,9.797174393179E-16,0.));
#1062 = DIRECTION('',(-0.,0.,-1.));
#1063 = DIRECTION('',(-1.,1.224646799147E-16,0.));
#1064 = PCURVE('',#203,#1065);
#1065 = DEFINITIONAL_REPRESENTATION('',(#1066),#1070);
#1066 = LINE('',#1067,#1068);
#1067 = CARTESIAN_POINT('',(-6.28318530718,-30.0000002));
#1068 = VECTOR('',#1069,1.);
#1069 = DIRECTION('',(1.,-0.));
#1070 = ( GEOMETRIC_REPRESENTATION_CONTEXT(2) 
PARAMETRIC_REPRESENTATION_CONTEXT() REPRESENTATION_CONTEXT('2D SPACE',''
  ) );
#1071 = PCURVE('',#1013,#1072);
#1072 = DEFINITIONAL_REPRESENTATION('',(#1073),#1081);
#1073 = ( BOUNDED_CURVE() B_SPLINE_CURVE(2,(#1074,#1075,#1076,#1077,
#1078,#1079,#1080),.UNSPECIFIED.,.T.,.F.) B_SPLINE_CURVE_WITH_KNOTS((1,2
    ,2,2,2,1),(-2.094395102393,0.,2.094395102393,4.188790204786,
6.28318530718,8.377580409573),.UNSPECIFIED.) CURVE() 
GEOMETRIC_REPRESENTATION_ITEM() RATIONAL_B_SPLINE_CURVE((1.,0.5,1.,0.5,
1.,0.5,1.)) REPRESENTATION_ITEM('') );
#1074 = CARTESIAN_POINT('',(-9.7,8.119885019681E-16));
#1075 = CARTESIAN_POINT('',(-9.7,2.944486372867));
#1076 = CARTESIAN_POINT('',(-7.15,1.472243186434));
#1077 = CARTESIAN_POINT('',(-4.6,6.037985461131E-16));
#1078 = CARTESIAN_POINT('',(-7.15,-1.472243186434));
#1079 = CARTESIAN_POINT('',(-9.7,-2.944486372867));
#1080 = CARTESIAN_POINT('',(-9.7,8.119885019681E-16));
#1081 = ( GEOMETRIC_REPRESENTATION_CONTEXT(2) 
PARAMETRIC_REPRESENTATION_CONTEXT() REPRESENTATION_CONTEXT('2D SPACE',''
  ) );
#1082 = ADVANCED_FACE('',(#1083),#238,.F.);
#1083 = FACE_BOUND('',#1084,.T.);
#1084 = EDGE_LOOP('',(#1085,#1108,#1109,#1110));
#1085 = ORIENTED_EDGE('',*,*,#1086,.T.);
#1086 = EDGE_CURVE('',#1087,#218,#1089,.T.);
#1087 = VERTEX_POINT('',#1088);
#1088 = CARTESIAN_POINT('',(4.85,-8.400446416709,0.));
#1089 = SEAM_CURVE('',#1090,(#1094,#1101),.PCURVE_S1.);
#1090 = LINE('',#1091,#1092);
#1091 = CARTESIAN_POINT('',(4.85,-8.400446416709,-30.0000002));
#1092 = VECTOR('',#1093,1.);
#1093 = DIRECTION('',(0.,0.,1.));
#1094 = PCURVE('',#238,#1095);
#1095 = DEFINITIONAL_REPRESENTATION('',(#1096),#1100);
#1096 = LINE('',#1097,#1098);
#1097 = CARTESIAN_POINT('',(-0.,0.));
#1098 = VECTOR('',#1099,1.);
#1099 = DIRECTION('',(-0.,-1.));
#1100 = ( GEOMETRIC_REPRESENTATION_CONTEXT(2) 
PARAMETRIC_REPRESENTATION_CONTEXT() REPRESENTATION_CONTEXT('2D SPACE',''
  ) );
#1101 = PCURVE('',#238,#1102);
#1102 = DEFINITIONAL_REPRESENTATION('',(#1103),#1107);
#1103 = LINE('',#1104,#1105);
#1104 = CARTESIAN_POINT('',(-6.28318530718,0.));
#1105 = VECTOR('',#1106,1.);
#1106 = DIRECTION('',(-0.,-1.));
#1107 = ( GEOMETRIC_REPRESENTATION_CONTEXT(2) 
PARAMETRIC_REPRESENTATION_CONTEXT() REPRESENTATION_CONTEXT('2D SPACE',''
  ) );
#1108 = ORIENTED_EDGE('',*,*,#217,.F.);
#1109 = ORIENTED_EDGE('',*,*,#1086,.F.);
#1110 = ORIENTED_EDGE('',*,*,#1111,.T.);
#1111 = EDGE_CURVE('',#1087,#1087,#1112,.T.);
#1112 = SURFACE_CURVE('',#1113,(#1118,#1125),.PCURVE_S1.);
#1113 = CIRCLE('',#1114,1.7);
#1114 = AXIS2_PLACEMENT_3D('',#1115,#1116,#1117);
#1115 = CARTESIAN_POINT('',(4.,-6.928203230276,0.));
#1116 = DIRECTION('',(0.,0.,-1.));
#1117 = DIRECTION('',(0.5,-0.866025403784,0.));
#1118 = PCURVE('',#238,#1119);
#1119 = DEFINITIONAL_REPRESENTATION('',(#1120),#1124);
#1120 = LINE('',#1121,#1122);
#1121 = CARTESIAN_POINT('',(-6.28318530718,-30.0000002));
#1122 = VECTOR('',#1123,1.);
#1123 = DIRECTION('',(1.,-0.));
#1124 = ( GEOMETRIC_REPRESENTATION_CONTEXT(2) 
PARAMETRIC_REPRESENTATION_CONTEXT() REPRESENTATION_CONTEXT('2D SPACE',''
  ) );
#1125 = PCURVE('',#1013,#1126);
#1126 = DEFINITIONAL_REPRESENTATION('',(#1127),#1135);
#1127 = ( BOUNDED_CURVE() B_SPLINE_CURVE(2,(#1128,#1129,#1130,#1131,
#1132,#1133,#1134),.UNSPECIFIED.,.T.,.F.) B_SPLINE_CURVE_WITH_KNOTS((1,2
    ,2,2,2,1),(-2.094395102393,0.,2.094395102393,4.188790204786,
6.28318530718,8.377580409573),.UNSPECIFIED.) CURVE() 
GEOMETRIC_REPRESENTATION_ITEM() RATIONAL_B_SPLINE_CURVE((1.,0.5,1.,0.5,
1.,0.5,1.)) REPRESENTATION_ITEM('') );
#1128 = CARTESIAN_POINT('',(4.85,-8.400446416709));
#1129 = CARTESIAN_POINT('',(2.3,-9.872689603143));
#1130 = CARTESIAN_POINT('',(2.3,-6.928203230276));
#1131 = CARTESIAN_POINT('',(2.3,-3.983716857408));
#1132 = CARTESIAN_POINT('',(4.85,-5.455960043842));
#1133 = CARTESIAN_POINT('',(7.4,-6.928203230276));
#1134 = CARTESIAN_POINT('',(4.85,-8.400446416709));
#1135 = ( GEOMETRIC_REPRESENTATION_CONTEXT(2) 
PARAMETRIC_REPRESENTATION_CONTEXT() REPRESENTATION_CONTEXT('2D SPACE',''
  ) );
#1136 = ADVANCED_FACE('',(#1137),#269,.F.);
#1137 = FACE_BOUND('',#1138,.T.);
#1138 = EDGE_LOOP('',(#1139,#1162,#1163,#1164));
#1139 = ORIENTED_EDGE('',*,*,#1140,.T.);
#1140 = EDGE_CURVE('',#1141,#253,#1143,.T.);
#1141 = VERTEX_POINT('',#1142);
#1142 = CARTESIAN_POINT('',(4.5,0.,0.));
#1143 = SEAM_CURVE('',#1144,(#1148,#1155),.PCURVE_S1.);
#1144 = LINE('',#1145,#1146);
#1145 = CARTESIAN_POINT('',(4.5,0.,0.));
#1146 = VECTOR('',#1147,1.);
#1147 = DIRECTION('',(0.,0.,1.));
#1148 = PCURVE('',#269,#1149);
#1149 = DEFINITIONAL_REPRESENTATION('',(#1150),#1154);
#1150 = LINE('',#1151,#1152);
#1151 = CARTESIAN_POINT('',(-0.,0.));
#1152 = VECTOR('',#1153,1.);
#1153 = DIRECTION('',(-0.,-1.));
#1154 = ( GEOMETRIC_REPRESENTATION_CONTEXT(2) 
PARAMETRIC_REPRESENTATION_CONTEXT() REPRESENTATION_CONTEXT('2D SPACE',''
  ) );
#1155 = PCURVE('',#269,#1156);
#1156 = DEFINITIONAL_REPRESENTATION('',(#1157),#1161);
#1157 = LINE('',#1158,#1159);
#1158 = CARTESIAN_POINT('',(-6.28318530718,0.));
#1159 = VECTOR('',#1160,1.);
#1160 = DIRECTION('',(-0.,-1.));
#1161 = ( GEOMETRIC_REPRESENTATION_CONTEXT(2) 
PARAMETRIC_REPRESENTATION_CONTEXT() REPRESENTATION_CONTEXT('2D SPACE',''
  ) );
#1162 = ORIENTED_EDGE('',*,*,#252,.T.);
#1163 = ORIENTED_EDGE('',*,*,#1140,.F.);
#1164 = ORIENTED_EDGE('',*,*,#1165,.F.);
#1165 = EDGE_CURVE('',#1141,#1141,#1166,.T.);
#1166 = SURFACE_CURVE('',#1167,(#1172,#1179),.PCURVE_S1.);
#1167 = CIRCLE('',#1168,4.5);
#1168 = AXIS2_PLACEMENT_3D('',#1169,#1170,#1171);
#1169 = CARTESIAN_POINT('',(0.,0.,0.));
#1170 = DIRECTION('',(0.,0.,1.));
#1171 = DIRECTION('',(1.,0.,0.));
#1172 = PCURVE('',#269,#1173);
#1173 = DEFINITIONAL_REPRESENTATION('',(#1174),#1178);
#1174 = LINE('',#1175,#1176);
#1175 = CARTESIAN_POINT('',(-0.,0.));
#1176 = VECTOR('',#1177,1.);
#1177 = DIRECTION('',(-1.,0.));
#1178 = ( GEOMETRIC_REPRESENTATION_CONTEXT(2) 
PARAMETRIC_REPRESENTATION_CONTEXT() REPRESENTATION_CONTEXT('2D SPACE',''
  ) );
#1179 = PCURVE('',#1013,#1180);
#1180 = DEFINITIONAL_REPRESENTATION('',(#1181),#1185);
#1181 = CIRCLE('',#1182,4.5);
#1182 = AXIS2_PLACEMENT_2D('',#1183,#1184);
#1183 = CARTESIAN_POINT('',(1.727292798997E-15,-3.759188932048E-16));
#1184 = DIRECTION('',(1.,0.));
#1185 = ( GEOMETRIC_REPRESENTATION_CONTEXT(2) 
PARAMETRIC_REPRESENTATION_CONTEXT() REPRESENTATION_CONTEXT('2D SPACE',''
  ) );
#1186 = ADVANCED_FACE('',(#1187),#304,.F.);
#1187 = FACE_BOUND('',#1188,.T.);
#1188 = EDGE_LOOP('',(#1189,#1212,#1213,#1214));
#1189 = ORIENTED_EDGE('',*,*,#1190,.T.);
#1190 = EDGE_CURVE('',#1191,#284,#1193,.T.);
#1191 = VERTEX_POINT('',#1192);
#1192 = CARTESIAN_POINT('',(9.7,0.,0.));
#1193 = SEAM_CURVE('',#1194,(#1198,#1205),.PCURVE_S1.);
#1194 = LINE('',#1195,#1196);
#1195 = CARTESIAN_POINT('',(9.7,0.,-30.0000002));
#1196 = VECTOR('',#1197,1.);
#1197 = DIRECTION('',(0.,0.,1.));
#1198 = PCURVE('',#304,#1199);
#1199 = DEFINITIONAL_REPRESENTATION('',(#1200),#1204);
#1200 = LINE('',#1201,#1202);
#1201 = CARTESIAN_POINT('',(-0.,0.));
#1202 = VECTOR('',#1203,1.);
#1203 = DIRECTION('',(-0.,-1.));
#1204 = ( GEOMETRIC_REPRESENTATION_CONTEXT(2) 
PARAMETRIC_REPRESENTATION_CONTEXT() REPRESENTATION_CONTEXT('2D SPACE',''
  ) );
#1205 = PCURVE('',#304,#1206);
#1206 = DEFINITIONAL_REPRESENTATION('',(#1207),#1211);
#1207 = LINE('',#1208,#1209);
#1208 = CARTESIAN_POINT('',(-6.28318530718,0.));
#1209 = VECTOR('',#1210,1.);
#1210 = DIRECTION('',(-0.,-1.));
#1211 = ( GEOMETRIC_REPRESENTATION_CONTEXT(2) 
PARAMETRIC_REPRESENTATION_CONTEXT() REPRESENTATION_CONTEXT('2D SPACE',''
  ) );
#1212 = ORIENTED_EDGE('',*,*,#283,.F.);
#1213 = ORIENTED_EDGE('',*,*,#1190,.F.);
#1214 = ORIENTED_EDGE('',*,*,#1215,.T.);
#1215 = EDGE_CURVE('',#1191,#1191,#1216,.T.);
#1216 = SURFACE_CURVE('',#1217,(#1222,#1229),.PCURVE_S1.);
#1217 = CIRCLE('',#1218,1.7);
#1218 = AXIS2_PLACEMENT_3D('',#1219,#1220,#1221);
#1219 = CARTESIAN_POINT('',(8.,0.,0.));
#1220 = DIRECTION('',(0.,0.,-1.));
#1221 = DIRECTION('',(1.,0.,0.));
#1222 = PCURVE('',#304,#1223);
#1223 = DEFINITIONAL_REPRESENTATION('',(#1224),#1228);
#1224 = LINE('',#1225,#1226);
#1225 = CARTESIAN_POINT('',(-6.28318530718,-30.0000002));
#1226 = VECTOR('',#1227,1.);
#1227 = DIRECTION('',(1.,-0.));
#1228 = ( GEOMETRIC_REPRESENTATION_CONTEXT(2) 
PARAMETRIC_REPRESENTATION_CONTEXT() REPRESENTATION_CONTEXT('2D SPACE',''
  ) );
#1229 = PCURVE('',#1013,#1230);
#1230 = DEFINITIONAL_REPRESENTATION('',(#1231),#1239);
#1231 = ( BOUNDED_CURVE() B_SPLINE_CURVE(2,(#1232,#1233,#1234,#1235,
#1236,#1237,#1238),.UNSPECIFIED.,.T.,.F.) B_SPLINE_CURVE_WITH_KNOTS((1,2
    ,2,2,2,1),(-2.094395102393,0.,2.094395102393,4.188790204786,
6.28318530718,8.377580409573),.UNSPECIFIED.) CURVE() 
GEOMETRIC_REPRESENTATION_ITEM() RATIONAL_B_SPLINE_CURVE((1.,0.5,1.,0.5,
1.,0.5,1.)) REPRESENTATION_ITEM('') );
#1232 = CARTESIAN_POINT('',(9.7,-3.759188932048E-16));
#1233 = CARTESIAN_POINT('',(9.7,-2.944486372867));
#1234 = CARTESIAN_POINT('',(7.15,-1.472243186434));
#1235 = CARTESIAN_POINT('',(4.6,-7.922988049149E-16));
#1236 = CARTESIAN_POINT('',(7.15,1.472243186434));
#1237 = CARTESIAN_POINT('',(9.7,2.944486372867));
#1238 = CARTESIAN_POINT('',(9.7,-3.759188932048E-16));
#1239 = ( GEOMETRIC_REPRESENTATION_CONTEXT(2) 
PARAMETRIC_REPRESENTATION_CONTEXT() REPRESENTATION_CONTEXT('2D SPACE',''
  ) );
#1240 = ADVANCED_FACE('',(#1241),#339,.F.);
#1241 = FACE_BOUND('',#1242,.T.);
#1242 = EDGE_LOOP('',(#1243,#1266,#1267,#1268));
#1243 = ORIENTED_EDGE('',*,*,#1244,.T.);
#1244 = EDGE_CURVE('',#1245,#319,#1247,.T.);
#1245 = VERTEX_POINT('',#1246);
#1246 = CARTESIAN_POINT('',(-4.85,8.400446416709,0.));
#1247 = SEAM_CURVE('',#1248,(#1252,#1259),.PCURVE_S1.);
#1248 = LINE('',#1249,#1250);
#1249 = CARTESIAN_POINT('',(-4.85,8.400446416709,-30.0000002));
#1250 = VECTOR('',#1251,1.);
#1251 = DIRECTION('',(0.,0.,1.));
#1252 = PCURVE('',#339,#1253);
#1253 = DEFINITIONAL_REPRESENTATION('',(#1254),#1258);
#1254 = LINE('',#1255,#1256);
#1255 = CARTESIAN_POINT('',(-0.,0.));
#1256 = VECTOR('',#1257,1.);
#1257 = DIRECTION('',(-0.,-1.));
#1258 = ( GEOMETRIC_REPRESENTATION_CONTEXT(2) 
PARAMETRIC_REPRESENTATION_CONTEXT() REPRESENTATION_CONTEXT('2D SPACE',''
  ) );
#1259 = PCURVE('',#339,#1260);
#1260 = DEFINITIONAL_REPRESENTATION('',(#1261),#1265);
#1261 = LINE('',#1262,#1263);
#1262 = CARTESIAN_POINT('',(-6.28318530718,0.));
#1263 = VECTOR('',#1264,1.);
#1264 = DIRECTION('',(-0.,-1.));
#1265 = ( GEOMETRIC_REPRESENTATION_CONTEXT(2) 
PARAMETRIC_REPRESENTATION_CONTEXT() REPRESENTATION_CONTEXT('2D SPACE',''
  ) );
#1266 = ORIENTED_EDGE('',*,*,#318,.F.);
#1267 = ORIENTED_EDGE('',*,*,#1244,.F.);
#1268 = ORIENTED_EDGE('',*,*,#1269,.T.);
#1269 = EDGE_CURVE('',#1245,#1245,#1270,.T.);
#1270 = SURFACE_CURVE('',#1271,(#1276,#1283),.PCURVE_S1.);
#1271 = CIRCLE('',#1272,1.7);
#1272 = AXIS2_PLACEMENT_3D('',#1273,#1274,#1275);
#1273 = CARTESIAN_POINT('',(-4.,6.928203230276,0.));
#1274 = DIRECTION('',(-0.,0.,-1.));
#1275 = DIRECTION('',(-0.5,0.866025403784,0.));
#1276 = PCURVE('',#339,#1277);
#1277 = DEFINITIONAL_REPRESENTATION('',(#1278),#1282);
#1278 = LINE('',#1279,#1280);
#1279 = CARTESIAN_POINT('',(-6.28318530718,-30.0000002));
#1280 = VECTOR('',#1281,1.);
#1281 = DIRECTION('',(1.,-0.));
#1282 = ( GEOMETRIC_REPRESENTATION_CONTEXT(2) 
PARAMETRIC_REPRESENTATION_CONTEXT() REPRESENTATION_CONTEXT('2D SPACE',''
  ) );
#1283 = PCURVE('',#1013,#1284);
#1284 = DEFINITIONAL_REPRESENTATION('',(#1285),#1293);
#1285 = ( BOUNDED_CURVE() B_SPLINE_CURVE(2,(#1286,#1287,#1288,#1289,
#1290,#1291,#1292),.UNSPECIFIED.,.T.,.F.) B_SPLINE_CURVE_WITH_KNOTS((1,2
    ,2,2,2,1),(-2.094395102393,0.,2.094395102393,4.188790204786,
6.28318530718,8.377580409573),.UNSPECIFIED.) CURVE() 
GEOMETRIC_REPRESENTATION_ITEM() RATIONAL_B_SPLINE_CURVE((1.,0.5,1.,0.5,
1.,0.5,1.)) REPRESENTATION_ITEM('') );
#1286 = CARTESIAN_POINT('',(-4.85,8.400446416709));
#1287 = CARTESIAN_POINT('',(-2.3,9.872689603143));
#1288 = CARTESIAN_POINT('',(-2.3,6.928203230276));
#1289 = CARTESIAN_POINT('',(-2.3,3.983716857408));
#1290 = CARTESIAN_POINT('',(-4.85,5.455960043842));
#1291 = CARTESIAN_POINT('',(-7.4,6.928203230276));
#1292 = CARTESIAN_POINT('',(-4.85,8.400446416709));
#1293 = ( GEOMETRIC_REPRESENTATION_CONTEXT(2) 
PARAMETRIC_REPRESENTATION_CONTEXT() REPRESENTATION_CONTEXT('2D SPACE',''
  ) );
#1294 = ADVANCED_FACE('',(#1295),#374,.F.);
#1295 = FACE_BOUND('',#1296,.T.);
#1296 = EDGE_LOOP('',(#1297,#1320,#1321,#1322));
#1297 = ORIENTED_EDGE('',*,*,#1298,.T.);
#1298 = EDGE_CURVE('',#1299,#354,#1301,.T.);
#1299 = VERTEX_POINT('',#1300);
#1300 = CARTESIAN_POINT('',(4.85,8.400446416709,0.));
#1301 = SEAM_CURVE('',#1302,(#1306,#1313),.PCURVE_S1.);
#1302 = LINE('',#1303,#1304);
#1303 = CARTESIAN_POINT('',(4.85,8.400446416709,-30.0000002));
#1304 = VECTOR('',#1305,1.);
#1305 = DIRECTION('',(0.,0.,1.));
#1306 = PCURVE('',#374,#1307);
#1307 = DEFINITIONAL_REPRESENTATION('',(#1308),#1312);
#1308 = LINE('',#1309,#1310);
#1309 = CARTESIAN_POINT('',(-0.,0.));
#1310 = VECTOR('',#1311,1.);
#1311 = DIRECTION('',(-0.,-1.));
#1312 = ( GEOMETRIC_REPRESENTATION_CONTEXT(2) 
PARAMETRIC_REPRESENTATION_CONTEXT() REPRESENTATION_CONTEXT('2D SPACE',''
  ) );
#1313 = PCURVE('',#374,#1314);
#1314 = DEFINITIONAL_REPRESENTATION('',(#1315),#1319);
#1315 = LINE('',#1316,#1317);
#1316 = CARTESIAN_POINT('',(-6.28318530718,0.));
#1317 = VECTOR('',#1318,1.);
#1318 = DIRECTION('',(-0.,-1.));
#1319 = ( GEOMETRIC_REPRESENTATION_CONTEXT(2) 
PARAMETRIC_REPRESENTATION_CONTEXT() REPRESENTATION_CONTEXT('2D SPACE',''
  ) );
#1320 = ORIENTED_EDGE('',*,*,#353,.F.);
#1321 = ORIENTED_EDGE('',*,*,#1298,.F.);
#1322 = ORIENTED_EDGE('',*,*,#1323,.T.);
#1323 = EDGE_CURVE('',#1299,#1299,#1324,.T.);
#1324 = SURFACE_CURVE('',#1325,(#1330,#1337),.PCURVE_S1.);
#1325 = CIRCLE('',#1326,1.7);
#1326 = AXIS2_PLACEMENT_3D('',#1327,#1328,#1329);
#1327 = CARTESIAN_POINT('',(4.,6.928203230276,0.));
#1328 = DIRECTION('',(0.,0.,-1.));
#1329 = DIRECTION('',(0.5,0.866025403784,0.));
#1330 = PCURVE('',#374,#1331);
#1331 = DEFINITIONAL_REPRESENTATION('',(#1332),#1336);
#1332 = LINE('',#1333,#1334);
#1333 = CARTESIAN_POINT('',(-6.28318530718,-30.0000002));
#1334 = VECTOR('',#1335,1.);
#1335 = DIRECTION('',(1.,-0.));
#1336 = ( GEOMETRIC_REPRESENTATION_CONTEXT(2) 
PARAMETRIC_REPRESENTATION_CONTEXT() REPRESENTATION_CONTEXT('2D SPACE',''
  ) );
#1337 = PCURVE('',#1013,#1338);
#1338 = DEFINITIONAL_REPRESENTATION('',(#1339),#1347);
#1339 = ( BOUNDED_CURVE() B_SPLINE_CURVE(2,(#1340,#1341,#1342,#1343,
#1344,#1345,#1346),.UNSPECIFIED.,.T.,.F.) B_SPLINE_CURVE_WITH_KNOTS((1,2
    ,2,2,2,1),(-2.094395102393,0.,2.094395102393,4.188790204786,
6.28318530718,8.377580409573),.UNSPECIFIED.) CURVE() 
GEOMETRIC_REPRESENTATION_ITEM() RATIONAL_B_SPLINE_CURVE((1.,0.5,1.,0.5,
1.,0.5,1.)) REPRESENTATION_ITEM('') );
#1340 = CARTESIAN_POINT('',(4.85,8.400446416709));
#1341 = CARTESIAN_POINT('',(7.4,6.928203230276));
#1342 = CARTESIAN_POINT('',(4.85,5.455960043842));
#1343 = CARTESIAN_POINT('',(2.3,3.983716857408));
#1344 = CARTESIAN_POINT('',(2.3,6.928203230276));
#1345 = CARTESIAN_POINT('',(2.3,9.872689603143));
#1346 = CARTESIAN_POINT('',(4.85,8.400446416709));
#1347 = ( GEOMETRIC_REPRESENTATION_CONTEXT(2) 
PARAMETRIC_REPRESENTATION_CONTEXT() REPRESENTATION_CONTEXT('2D SPACE',''
  ) );
#1348 = ADVANCED_FACE('',(#1349,#1380),#406,.T.);
#1349 = FACE_BOUND('',#1350,.T.);
#1350 = EDGE_LOOP('',(#1351));
#1351 = ORIENTED_EDGE('',*,*,#1352,.T.);
#1352 = EDGE_CURVE('',#1353,#1353,#1355,.T.);
#1353 = VERTEX_POINT('',#1354);
#1354 = CARTESIAN_POINT('',(19.,0.,1.5));
#1355 = SURFACE_CURVE('',#1356,(#1361,#1368),.PCURVE_S1.);
#1356 = CIRCLE('',#1357,19.);
#1357 = AXIS2_PLACEMENT_3D('',#1358,#1359,#1360);
#1358 = CARTESIAN_POINT('',(0.,0.,1.5));
#1359 = DIRECTION('',(0.,0.,1.));
#1360 = DIRECTION('',(1.,0.,0.));
#1361 = PCURVE('',#406,#1362);
#1362 = DEFINITIONAL_REPRESENTATION('',(#1363),#1367);
#1363 = CIRCLE('',#1364,19.);
#1364 = AXIS2_PLACEMENT_2D('',#1365,#1366);
#1365 = CARTESIAN_POINT('',(1.727292798997E-15,-3.759188932048E-16));
#1366 = DIRECTION('',(1.,0.));
#1367 = ( GEOMETRIC_REPRESENTATION_CONTEXT(2) 
PARAMETRIC_REPRESENTATION_CONTEXT() REPRESENTATION_CONTEXT('2D SPACE',''
  ) );
#1368 = PCURVE('',#1369,#1374);
#1369 = CYLINDRICAL_SURFACE('',#1370,19.);
#1370 = AXIS2_PLACEMENT_3D('',#1371,#1372,#1373);
#1371 = CARTESIAN_POINT('',(0.,0.,0.));
#1372 = DIRECTION('',(-0.,-0.,-1.));
#1373 = DIRECTION('',(1.,0.,0.));
#1374 = DEFINITIONAL_REPRESENTATION('',(#1375),#1379);
#1375 = LINE('',#1376,#1377);
#1376 = CARTESIAN_POINT('',(-0.,-1.5));
#1377 = VECTOR('',#1378,1.);
#1378 = DIRECTION('',(-1.,0.));
#1379 = ( GEOMETRIC_REPRESENTATION_CONTEXT(2) 
PARAMETRIC_REPRESENTATION_CONTEXT() REPRESENTATION_CONTEXT('2D SPACE',''
  ) );
#1380 = FACE_BOUND('',#1381,.T.);
#1381 = EDGE_LOOP('',(#1382));
#1382 = ORIENTED_EDGE('',*,*,#389,.F.);
#1383 = ADVANCED_FACE('',(#1384),#609,.F.);
#1384 = FACE_BOUND('',#1385,.T.);
#1385 = EDGE_LOOP('',(#1386,#1387));
#1386 = ORIENTED_EDGE('',*,*,#720,.T.);
#1387 = ORIENTED_EDGE('',*,*,#441,.F.);
#1388 = ADVANCED_FACE('',(#1389,#1415,#1418,#1421,#1424,#1427,#1430,
    #1433),#1013,.F.);
#1389 = FACE_BOUND('',#1390,.F.);
#1390 = EDGE_LOOP('',(#1391));
#1391 = ORIENTED_EDGE('',*,*,#1392,.T.);
#1392 = EDGE_CURVE('',#1393,#1393,#1395,.T.);
#1393 = VERTEX_POINT('',#1394);
#1394 = CARTESIAN_POINT('',(19.,0.,0.));
#1395 = SURFACE_CURVE('',#1396,(#1401,#1408),.PCURVE_S1.);
#1396 = CIRCLE('',#1397,19.);
#1397 = AXIS2_PLACEMENT_3D('',#1398,#1399,#1400);
#1398 = CARTESIAN_POINT('',(0.,0.,0.));
#1399 = DIRECTION('',(0.,0.,1.));
#1400 = DIRECTION('',(1.,0.,0.));
#1401 = PCURVE('',#1013,#1402);
#1402 = DEFINITIONAL_REPRESENTATION('',(#1403),#1407);
#1403 = CIRCLE('',#1404,19.);
#1404 = AXIS2_PLACEMENT_2D('',#1405,#1406);
#1405 = CARTESIAN_POINT('',(1.727292798997E-15,-3.759188932048E-16));
#1406 = DIRECTION('',(1.,0.));
#1407 = ( GEOMETRIC_REPRESENTATION_CONTEXT(2) 
PARAMETRIC_REPRESENTATION_CONTEXT() REPRESENTATION_CONTEXT('2D SPACE',''
  ) );
#1408 = PCURVE('',#1369,#1409);
#1409 = DEFINITIONAL_REPRESENTATION('',(#1410),#1414);
#1410 = LINE('',#1411,#1412);
#1411 = CARTESIAN_POINT('',(-0.,0.));
#1412 = VECTOR('',#1413,1.);
#1413 = DIRECTION('',(-1.,0.));
#1414 = ( GEOMETRIC_REPRESENTATION_CONTEXT(2) 
PARAMETRIC_REPRESENTATION_CONTEXT() REPRESENTATION_CONTEXT('2D SPACE',''
  ) );
#1415 = FACE_BOUND('',#1416,.F.);
#1416 = EDGE_LOOP('',(#1417));
#1417 = ORIENTED_EDGE('',*,*,#998,.T.);
#1418 = FACE_BOUND('',#1419,.F.);
#1419 = EDGE_LOOP('',(#1420));
#1420 = ORIENTED_EDGE('',*,*,#1057,.T.);
#1421 = FACE_BOUND('',#1422,.F.);
#1422 = EDGE_LOOP('',(#1423));
#1423 = ORIENTED_EDGE('',*,*,#1111,.T.);
#1424 = FACE_BOUND('',#1425,.F.);
#1425 = EDGE_LOOP('',(#1426));
#1426 = ORIENTED_EDGE('',*,*,#1165,.F.);
#1427 = FACE_BOUND('',#1428,.F.);
#1428 = EDGE_LOOP('',(#1429));
#1429 = ORIENTED_EDGE('',*,*,#1215,.T.);
#1430 = FACE_BOUND('',#1431,.F.);
#1431 = EDGE_LOOP('',(#1432));
#1432 = ORIENTED_EDGE('',*,*,#1269,.T.);
#1433 = FACE_BOUND('',#1434,.F.);
#1434 = EDGE_LOOP('',(#1435));
#1435 = ORIENTED_EDGE('',*,*,#1323,.T.);
#1436 = ADVANCED_FACE('',(#1437),#1369,.T.);
#1437 = FACE_BOUND('',#1438,.F.);
#1438 = EDGE_LOOP('',(#1439,#1460,#1461,#1462));
#1439 = ORIENTED_EDGE('',*,*,#1440,.T.);
#1440 = EDGE_CURVE('',#1393,#1353,#1441,.T.);
#1441 = SEAM_CURVE('',#1442,(#1446,#1453),.PCURVE_S1.);
#1442 = LINE('',#1443,#1444);
#1443 = CARTESIAN_POINT('',(19.,0.,0.));
#1444 = VECTOR('',#1445,1.);
#1445 = DIRECTION('',(0.,0.,1.));
#1446 = PCURVE('',#1369,#1447);
#1447 = DEFINITIONAL_REPRESENTATION('',(#1448),#1452);
#1448 = LINE('',#1449,#1450);
#1449 = CARTESIAN_POINT('',(-0.,0.));
#1450 = VECTOR('',#1451,1.);
#1451 = DIRECTION('',(-0.,-1.));
#1452 = ( GEOMETRIC_REPRESENTATION_CONTEXT(2) 
PARAMETRIC_REPRESENTATION_CONTEXT() REPRESENTATION_CONTEXT('2D SPACE',''
  ) );
#1453 = PCURVE('',#1369,#1454);
#1454 = DEFINITIONAL_REPRESENTATION('',(#1455),#1459);
#1455 = LINE('',#1456,#1457);
#1456 = CARTESIAN_POINT('',(-6.28318530718,0.));
#1457 = VECTOR('',#1458,1.);
#1458 = DIRECTION('',(-0.,-1.));
#1459 = ( GEOMETRIC_REPRESENTATION_CONTEXT(2) 
PARAMETRIC_REPRESENTATION_CONTEXT() REPRESENTATION_CONTEXT('2D SPACE',''
  ) );
#1460 = ORIENTED_EDGE('',*,*,#1352,.T.);
#1461 = ORIENTED_EDGE('',*,*,#1440,.F.);
#1462 = ORIENTED_EDGE('',*,*,#1392,.F.);
#1463 = ( GEOMETRIC_REPRESENTATION_CONTEXT(3) 
GLOBAL_UNCERTAINTY_ASSIGNED_CONTEXT((#1467)) 
GLOBAL_UNIT_ASSIGNED_CONTEXT((#1464,#1465,#1466)) REPRESENTATION_CONTEXT
('Context #1','3D Context with UNIT and UNCERTAINTY') );
#1464 = ( LENGTH_UNIT() NAMED_UNIT(*) SI_UNIT(.MILLI.,.METRE.) );
#1465 = ( NAMED_UNIT(*) PLANE_ANGLE_UNIT() SI_UNIT($,.RADIAN.) );
#1466 = ( NAMED_UNIT(*) SI_UNIT($,.STERADIAN.) SOLID_ANGLE_UNIT() );
#1467 = UNCERTAINTY_MEASURE_WITH_UNIT(LENGTH_MEASURE(1.E-07),#1464,
  'distance_accuracy_value','confusion accuracy');
#1468 = PRODUCT_RELATED_PRODUCT_CATEGORY('part',$,(#7));
ENDSEC;
END-ISO-10303-21;
